<?xml version="1.0" encoding="UTF-8"?>
<svg version="1.1" xmlns="http://www.w3.org/2000/svg" width="1024" height="1024">
<path d="M0 0 C337.92 0 675.84 0 1024 0 C1024 337.92 1024 675.84 1024 1024 C686.08 1024 348.16 1024 0 1024 C0 686.08 0 348.16 0 0 Z " fill="#FAF9F6" transform="translate(0,0)"/>
<path d="M0 0 C9.6207665 6.02058081 15.43905741 13.19687013 19 24 C21.26279379 35.70102578 16.27774295 47.25119349 9.875 56.875 C5.50647743 62.87345872 0.46454306 67.34228418 -6 71 C-6.66 71 -7.32 71 -8 71 C-8 80.57 -8 90.14 -8 100 C-5.64987793 99.97905273 -3.29975586 99.95810547 -0.87841797 99.93652344 C6.93656145 99.86987539 14.75155431 99.82591482 22.56674385 99.79275131 C27.29937045 99.77198648 32.03170282 99.74387506 36.76416016 99.69824219 C41.34185502 99.6543841 45.9192691 99.63077969 50.49715805 99.62049103 C52.23285204 99.61317064 53.96853284 99.59887842 55.70410538 99.57707977 C69.84822674 99.40669687 81.86325534 101.50265094 94.75 107.75 C95.46534912 108.09289062 96.18069824 108.43578125 96.91772461 108.7890625 C102.95713024 111.78654402 108.05652477 115.40120745 113 120 C113.69222656 120.60199219 114.38445312 121.20398438 115.09765625 121.82421875 C124.27723799 130.26094416 130.72559772 142.0200955 134 154 C134.125 157.37890625 134.125 157.37890625 134 160 C135.55847656 159.91298828 135.55847656 159.91298828 137.1484375 159.82421875 C145.6968355 159.48761916 152.96499065 159.43619032 160 165 C165.55926509 170.7686098 168.23623138 176.41089036 168.29052734 184.4675293 C168.30328705 185.75624435 168.31604675 187.04495941 168.32919312 188.37272644 C168.33225191 189.77322234 168.33447906 191.17372027 168.3359375 192.57421875 C168.34237199 194.02285389 168.34910083 195.47148776 168.35610962 196.92012024 C168.36806915 199.9554851 168.37179206 202.9907363 168.37060547 206.02612305 C168.3704029 209.89163801 168.39764552 213.75641264 168.43214989 217.62175274 C168.45453467 220.61517088 168.45843942 223.60841451 168.45738602 226.60190773 C168.45972689 228.02549592 168.46846394 229.44909005 168.48405075 230.87259483 C168.58696084 241.24625664 167.85956491 249.94841313 160.75 257.9375 C152.80033722 265.01871223 144.09330648 264.35484281 134 264 C134.061875 265.8871875 134.061875 265.8871875 134.125 267.8125 C133.99489573 281.77702522 128.69432967 296.6347123 118.8359375 306.86328125 C112.3519277 311.74861645 104.82105462 315.0739162 97.58105469 318.6875 C86.74063828 324.19999325 77.14150657 330.91560259 67.74267578 338.59277344 C65.99156207 340.0068137 64.21843625 341.38665585 62.43359375 342.7578125 C50.64899064 351.81718583 40.09466022 361.13884022 31 373 C30.26136719 373.92296875 29.52273438 374.8459375 28.76171875 375.796875 C23.86510404 382.05506996 19.85948792 388.44572136 16.18164062 395.48120117 C15.83810547 396.12549072 15.49457031 396.76978027 15.140625 397.43359375 C14.70024902 398.28522095 14.70024902 398.28522095 14.25097656 399.15405273 C11.65897293 402.97882625 9.33859192 405.59032233 4.85302734 406.96313477 C3.11206787 407.19987915 3.11206787 407.19987915 1.3359375 407.44140625 C0.04816406 407.63283203 -1.23960937 407.82425781 -2.56640625 408.02148438 C-3.91905763 408.20341517 -5.27192513 408.38374605 -6.625 408.5625 C-26.81094746 411.32631602 -39.89140766 417.01283164 -53 433 C-53.433125 433.52368164 -53.86625 434.04736328 -54.3125 434.58691406 C-72.24873711 455.81300317 -72.24873711 455.81300317 -79.421875 481.67578125 C-78.36393872 487.5042265 -74.64360964 494.24164927 -70 498 C-67.71878714 498.47047387 -67.71878714 498.47047387 -65.18359375 498.44140625 C-64.25482422 498.46783203 -63.32605469 498.49425781 -62.36914062 498.52148438 C-61.40169922 498.53501953 -60.43425781 498.54855469 -59.4375 498.5625 C-57.51935782 498.59686618 -55.60133957 498.63943121 -53.68359375 498.69140625 C-52.83337646 498.70373291 -51.98315918 498.71605957 -51.10717773 498.72875977 C-49 499 -49 499 -47 501 C-44.99230454 505.36969012 -43.3447726 509.10829508 -44.96875 513.796875 C-50.42305398 524.31588982 -55.2343667 533.12694229 -67 537 C-85.99944698 541.73118601 -110.11254178 541.18525139 -127.41796875 531.640625 C-136.85984107 525.64125076 -142.64477793 515.59719262 -145.08032227 504.73999023 C-146.43545252 497.66052161 -146.24876672 490.54198621 -146.1953125 483.3671875 C-146.19157426 481.87932527 -146.18873113 480.39146056 -146.18673706 478.90359497 C-146.17916434 475.02055862 -146.15957193 471.13767603 -146.1373291 467.25469971 C-146.11673222 463.27919595 -146.10770598 459.30366693 -146.09765625 455.328125 C-146.07631886 447.55201385 -146.04226155 439.77602861 -146 432 C-150.50185762 435.24348903 -150.50185762 435.24348903 -153 440 C-153.1786085 442.67406816 -153.24966028 445.24227125 -153.22363281 447.91455078 C-153.22404068 448.70861832 -153.22444855 449.50268585 -153.22486877 450.32081604 C-153.22506613 452.04339143 -153.22103356 453.76597133 -153.21326447 455.48852921 C-153.20302447 458.2221507 -153.20843324 460.95531717 -153.21868896 463.68893433 C-153.24663026 471.46067231 -153.2592529 479.23215659 -153.22998047 487.00390625 C-153.21318482 491.76152653 -153.22567327 496.51833521 -153.25643158 501.27587509 C-153.26250886 503.08181294 -153.2577384 504.88782333 -153.24155426 506.69369888 C-153.08153838 525.33647125 -153.08153838 525.33647125 -160 533 C-166.23574656 538.55881893 -172.77262222 538.24187349 -180.6875 538.3125 C-181.75162109 538.34150391 -182.81574219 538.37050781 -183.91210938 538.40039062 C-190.49609098 538.45325768 -195.57139835 537.92953945 -201 534 C-203.05859375 531.96484375 -203.05859375 531.96484375 -204.4375 529.9375 C-204.91058594 529.26589844 -205.38367188 528.59429688 -205.87109375 527.90234375 C-207.7948772 524.66053565 -208.12943176 521.99034706 -208.15390015 518.30513 C-208.16250061 517.33967255 -208.17110107 516.37421509 -208.17996216 515.37950134 C-208.18422211 514.32138748 -208.18848206 513.26327362 -208.19287109 512.1730957 C-208.20513733 510.49923798 -208.20513733 510.49923798 -208.21765137 508.79156494 C-208.24252472 505.08630914 -208.25903388 501.38109195 -208.2734375 497.67578125 C-208.27876118 496.40769308 -208.28408485 495.13960491 -208.28956985 493.83308983 C-208.31081189 488.4946932 -208.32993677 483.15630999 -208.34119225 477.81788349 C-208.35735842 470.2027391 -208.39034149 462.58811092 -208.44759309 454.97316104 C-208.49129871 448.95092487 -208.50697181 442.92891942 -208.51332474 436.90651512 C-208.52000298 434.36027559 -208.53513445 431.81404251 -208.55921555 429.2679081 C-208.78227361 404.23860415 -204.25778453 385.17810988 -186.75 366.375 C-173.48302382 353.61145819 -158.47407087 350.92691339 -140.84765625 350.68359375 C-139.59238632 350.66281265 -138.33711639 350.64203156 -137.04380798 350.62062073 C-133.72800883 350.56651257 -130.41219725 350.51620387 -127.09631348 350.46777344 C-123.70413122 350.4172806 -120.31203188 350.36174048 -116.91992188 350.30664062 C-110.28001423 350.19980213 -103.64004401 350.09797642 -97 350 C-97.62648438 349.18015625 -98.25296875 348.3603125 -98.8984375 347.515625 C-99.72412933 346.42721304 -100.54964068 345.33866413 -101.375 344.25 C-101.7875 343.71117187 -102.2 343.17234375 -102.625 342.6171875 C-104.3251883 340.36855136 -105.88369508 338.25316406 -107.0637207 335.68457031 C-108.00305349 333.54796675 -108.00305349 333.54796675 -111.60546875 332.796875 C-113.13067002 332.43866847 -114.65820714 332.09031486 -116.1875 331.75 C-135.19951371 326.97987206 -151.88694411 315.92535481 -162.20043945 298.98461914 C-167.66691832 289.62459333 -172.2269323 279.20446384 -172.0625 268.1875 C-172.05347656 267.39730469 -172.04445313 266.60710937 -172.03515625 265.79296875 C-172.02355469 265.20128906 -172.01195312 264.60960937 -172 264 C-172.99 264.03480469 -173.98 264.06960938 -175 264.10546875 C-184.28524894 264.33710026 -192.35600322 264.34558859 -199.62832642 257.60128784 C-206.65073064 249.40335311 -206.74416867 240.25642925 -206.6640625 229.9921875 C-206.66743859 228.45622373 -206.67229778 226.92026258 -206.67855835 225.38430786 C-206.6858881 222.18188779 -206.67534911 218.98016983 -206.65185547 215.77783203 C-206.62332014 211.69116505 -206.63982451 207.60613685 -206.66971779 203.51952934 C-206.68785627 200.35368681 -206.68200395 197.18822779 -206.66907883 194.0223732 C-206.66576533 192.51621425 -206.66975884 191.01001944 -206.68147659 189.50390244 C-206.74101826 179.70570932 -205.86048943 173.33418119 -199.15625 165.9765625 C-198.6096875 165.53054688 -198.063125 165.08453125 -197.5 164.625 C-196.68015625 163.93277344 -196.68015625 163.93277344 -195.84375 163.2265625 C-190.69624886 159.80216555 -186.17247774 159.74456461 -180.1875 159.875 C-179.39923828 159.88402344 -178.61097656 159.89304687 -177.79882812 159.90234375 C-175.86575334 159.92577496 -173.9328362 159.96164162 -172 160 C-171.89558594 158.83855469 -171.79117188 157.67710937 -171.68359375 156.48046875 C-171.12560057 152.08131627 -169.85844637 148.34947292 -168.0625 144.3125 C-167.60387573 143.27984009 -167.60387573 143.27984009 -167.13598633 142.22631836 C-158.97667922 124.73574928 -144.01540526 111.14702693 -125.9453125 104.42578125 C-117.73749915 101.56109733 -110.42708549 99.84569311 -101.72143555 99.88647461 C-100.90140549 99.88632858 -100.08137543 99.88618256 -99.23649597 99.8860321 C-96.53654296 99.8867266 -93.83665965 99.8944973 -91.13671875 99.90234375 C-89.26056455 99.90420957 -87.38440987 99.9056327 -85.508255 99.90663147 C-80.577979 99.9104437 -75.6477326 99.92026293 -70.71746826 99.93133545 C-65.68339437 99.94157741 -60.64931569 99.94613506 -55.61523438 99.95117188 C-45.7434766 99.96188636 -35.87174076 99.97894724 -26 100 C-26.07105453 99.25900558 -26.14210907 98.51801117 -26.21531677 97.75456238 C-26.30724808 96.77490005 -26.39917938 95.79523773 -26.49389648 94.78588867 C-26.58557602 93.81801926 -26.67725555 92.85014984 -26.77171326 91.85295105 C-27.08016222 87.99819458 -27.11075577 84.17667323 -27.0625 80.3125 C-27.05798828 79.59900391 -27.05347656 78.88550781 -27.04882812 78.15039062 C-27.03730574 76.43355526 -27.0193863 74.71676457 -27 73 C-27.70253906 72.7628125 -28.40507812 72.525625 -29.12890625 72.28125 C-38.65181292 68.03157192 -45.47446088 60.15667415 -50 51 C-50.38671875 50.31035156 -50.7734375 49.62070313 -51.171875 48.91015625 C-55.31721055 41.32539375 -57.24806568 32.61696409 -56 24 C-52.7636558 13.929628 -45.03886768 5.28229196 -36.01953125 -0.0625 C-25.74025005 -4.83431332 -10.32833665 -5.03333246 0 0 Z " fill="#12678A" transform="translate(530,105)"/>
<path d="M0 0 C0.66 0 1.32 0 2 0 C2.47308594 0.97839844 2.94617188 1.95679688 3.43359375 2.96484375 C13.28179867 22.75733364 30.29930719 33.06172271 50 42 C50.83015625 42.27070312 51.6603125 42.54140625 52.515625 42.8203125 C56.00131934 44.47546925 58.37531526 47.05791335 61 49.8125 C61.50789063 50.33392578 62.01578125 50.85535156 62.5390625 51.39257812 C63.54971045 52.43043583 64.55747848 53.47110624 65.56225586 54.51464844 C66.88288786 55.87900998 68.22373144 57.22373144 69.56640625 58.56640625 C71.19605835 60.19605835 72.80806385 61.84353983 74.40234375 63.5078125 C80.88666061 70.20194547 87.73998446 76.06109714 95.19726562 81.64599609 C96.99283211 82.99461632 98.76942627 84.36591406 100.546875 85.73828125 C109.67684556 92.66848804 118.70780504 96.53955046 129.73046875 99.60546875 C154.15469482 106.40806801 154.15469482 106.40806801 164.375 116 C173.02191609 123.99723724 183.43087197 127.32344197 194.57421875 130.15258789 C201.89793547 132.07775607 208.97581667 135.09932362 214 141 C214.125 143.4375 214.125 143.4375 213 146 C205.04521886 151.5683468 196.57651287 153.13670794 187 152 C176.07727405 149.75160305 166.15778376 146.85446108 158 139 C156.17824041 137.46532182 154.34414938 135.94519963 152.5 134.4375 C151.57445312 133.67953125 150.64890625 132.9215625 149.6953125 132.140625 C136.21313632 121.4330416 122.90304765 117.99848188 106 116 C106.79921875 117.00675781 107.5984375 118.01351562 108.421875 119.05078125 C114.98679695 127.420704 121.01703358 135.93408659 126.62036133 144.9753418 C135.27059537 158.92976341 144.86145139 172.09337175 155 185 C155.43618652 185.55623047 155.87237305 186.11246094 156.32177734 186.68554688 C159.95168642 191.28933399 163.58653071 195.68492867 167.875 199.6875 C171.76301871 203.45035111 174.76032334 207.68249904 177.8125 212.125 C178.28091309 212.80651123 178.74932617 213.48802246 179.23193359 214.19018555 C186 224.24192685 186 224.24192685 186 229 C175.6140528 227.56346994 169.51458933 224.20007737 162 217 C161.16855469 216.24589844 160.33710937 215.49179687 159.48046875 214.71484375 C153.34038834 208.92286239 148.48371931 202.47983504 143.640625 195.61328125 C138.82642838 188.92649713 133.82430171 183.75461694 127.125 178.9375 C125.7734375 177.94661458 124.421875 176.95572917 123.0703125 175.96484375 C122.40805664 175.4838623 121.74580078 175.00288086 121.06347656 174.50732422 C117.68379889 172.03854405 114.34219208 169.51918146 111 167 C111.33 167.66 111.66 168.32 112 169 C112.07092842 171.2072923 112.08415025 173.41667452 112.0625 175.625 C112.05347656 176.81351563 112.04445313 178.00203125 112.03515625 179.2265625 C112.01775391 180.59941406 112.01775391 180.59941406 112 182 C111.34 182 110.68 182 110 182 C108.45596718 195.44541147 108.45596718 195.44541147 109.9921875 208.7265625 C111.16849254 213.19673012 111.24407577 217.46334648 111.3125 222.0625 C111.61599635 231.70514815 113.65582135 240.31164271 118 249 C118.04022391 251.3329866 118.04320247 253.66706666 118 256 C114.83230081 255.76535562 113.87779105 254.87457502 111.625 252.5625 C110.72948725 251.39039157 109.85618294 250.2011378 109 249 C108.52433594 248.35546875 108.04867188 247.7109375 107.55859375 247.046875 C102.08624108 238.87406632 99.61919605 229.38685705 97 220 C96.8131665 219.41758545 96.62633301 218.8351709 96.43383789 218.23510742 C95.77760704 214.85424451 95.86412672 211.47359329 95.859375 208.04296875 C95.84101714 206.43813719 95.82144417 204.83331916 95.80078125 203.22851562 C95.77210244 200.72543889 95.75000707 198.22322112 95.74951172 195.7199707 C95.72745707 179.94617287 92.72344718 167.49431693 84.5625 153.75 C83.79631348 152.43346436 83.79631348 152.43346436 83.01464844 151.09033203 C77.78366549 142.29792941 71.76051758 134.14482515 65.54199219 126.03417969 C62.81410734 122.43558302 60.23624812 118.7314679 57.6484375 115.03125 C54.54003966 111.20099674 51.58800081 109.64393041 46.796875 108.61328125 C45.8171875 108.39736328 44.8375 108.18144531 43.828125 107.95898438 C42.81234375 107.74564453 41.7965625 107.53230469 40.75 107.3125 C39.71875 107.08755859 38.6875 106.86261719 37.625 106.63085938 C35.08513939 106.07820452 32.54363769 105.53495126 30 105 C30.19335938 105.99515625 30.38671875 106.9903125 30.5859375 108.015625 C32.23259384 116.75393791 33.42146658 125.431758 34.23217773 134.28564453 C34.87461146 141.14044495 35.80758415 147.92516776 36.82861328 154.73266602 C37.69699665 160.61604401 38.39851398 166.50097863 39.02514648 172.41479492 C41.7518418 197.92166912 45.4447704 220.74864794 59.640625 242.515625 C68.68453723 256.67528556 70.04777768 272.20138952 67.421875 288.61328125 C66.75732749 291.16896132 65.99061633 293.55469483 65 296 C64.71382812 296.72703125 64.42765625 297.4540625 64.1328125 298.203125 C63.46430296 299.82028142 62.74000122 301.4142831 62 303 C58.92451664 302.68660878 57.34678871 302.31910099 55.04296875 300.19921875 C48.95221331 291.95425928 45.61565507 283.09145902 41.99560547 273.57226562 C35.69847274 257.3028712 27.39080506 242.92430373 17.67382812 228.49902344 C2 205.20903939 2 205.20903939 2 200 C-10.86226899 208.71593147 -10.86226899 208.71593147 -20 221 C-20.28509186 223.85236576 -20.41750923 226.49426467 -20.40625 229.34375 C-20.42250427 230.55206482 -20.42250427 230.55206482 -20.43908691 231.78479004 C-20.47324202 234.35660755 -20.48889709 236.92798614 -20.5 239.5 C-20.56411277 254.10656258 -21.14078148 267.40817722 -27.8125 280.75 C-28.1628833 281.46808838 -28.5132666 282.18617676 -28.87426758 282.92602539 C-35.83582258 296.93958641 -35.83582258 296.93958641 -40.53515625 299.2421875 C-43.22012929 300.06767842 -44.41743345 300.01457972 -47 299 C-48.85580722 297.14419278 -48.30303068 294.30651369 -48.375 291.8125 C-48.3308005 283.14055811 -45.76773679 275.69764565 -42 267.94140625 C-38.29482834 259.9432232 -38.6287762 248.16186294 -41.3125 239.8125 C-42.24111647 237.47867553 -43.34212282 235.38486146 -44.56640625 233.18359375 C-47.09868559 227.56013964 -46.89873547 222.02957602 -46 216 C-44.28399995 212.10689784 -41.77862022 209.19680721 -39 206 C-21.14787273 184.6701856 -15.55033396 163.11589888 -15.8125 135.3125 C-15.81314453 134.00216797 -15.81378906 132.69183594 -15.81445312 131.34179688 C-15.84958849 123.51441853 -16.20821559 115.78755049 -17 108 C-27.93475063 110.11132073 -33.75260475 113.27582386 -41 122 C-41.7115625 122.81339844 -42.423125 123.62679687 -43.15625 124.46484375 C-50.31505155 132.88162311 -56.68392983 141.94459291 -63 151 C-63.64936523 151.92522461 -64.29873047 152.85044922 -64.96777344 153.80371094 C-67.00382079 156.72764386 -69.00566046 159.67249438 -71 162.625 C-71.62277832 163.51735352 -72.24555664 164.40970703 -72.88720703 165.32910156 C-81.63608556 178.49869088 -83.73827383 191.62200294 -83.6875 207.0625 C-83.74523334 220.85764746 -84.15980938 234.50151393 -88.25 247.8125 C-88.46180908 248.51898682 -88.67361816 249.22547363 -88.8918457 249.95336914 C-91.01585467 256.66825091 -93.96892759 262.96892759 -99 268 C-102.125 267.625 -102.125 267.625 -105 267 C-105.32127849 259.49160271 -105.08344656 252.73608603 -103.5625 245.375 C-100.23176021 228.9680945 -100.92239977 211.6719785 -101 195 C-101.65226562 195.92941406 -102.30453125 196.85882812 -102.9765625 197.81640625 C-105.22526712 201.00904888 -107.50863431 204.17527121 -109.8046875 207.33398438 C-110.70906456 208.59449685 -111.58124783 209.87818965 -112.4375 211.171875 C-118.05674694 218.93530827 -129.96270446 224.53528303 -139 227 C-142.87796469 226.72300252 -145.06281719 225.50204462 -148 223 C-145.99301999 216.6141545 -140.92099952 212.90729343 -136.19921875 208.41015625 C-122.04118373 194.76426611 -122.04118373 194.76426611 -112 178 C-111.02870423 175.94275122 -110.05444185 173.8869019 -109.078125 171.83203125 C-106.23275313 165.80159233 -103.44765854 159.74558272 -100.68017578 153.67919922 C-98.03511632 147.88148124 -95.35963086 142.09777645 -92.6875 136.3125 C-92.19290283 135.2407251 -91.69830566 134.1689502 -91.1887207 133.06469727 C-88.28191564 126.76751422 -85.37347746 120.47114436 -82.4375 114.1875 C-82.12707764 113.51823486 -81.81665527 112.84896973 -81.49682617 112.15942383 C-79.84709522 108.64333988 -78.06257382 105.29134121 -76 102 C-84.95017411 107.17498218 -93.771207 112.41647024 -102.3359375 118.2109375 C-107.88747447 121.93909576 -113.56525308 125.2905081 -119.53125 128.3125 C-133.67292187 135.48605322 -142.45214409 141.05461137 -149 156 C-155.62450401 171.12033685 -165.1955 177.84613148 -180.18359375 183.87890625 C-187.81331932 186.22525196 -197.78113413 186.42590245 -205 183 C-204.89106216 179.29611338 -203.98730039 177.98637115 -201.4375 175.25 C-197.64826513 172.18886192 -193.4532675 169.99723773 -189.1875 167.6875 C-178.28528925 161.7338992 -170.85024285 155.05225935 -165 144 C-159.9119508 134.53445212 -154.1261244 125.08408293 -145 119 C-154.4465692 117.54993051 -163.69930928 116.86508078 -173.25 116.625 C-184.51023054 116.29737086 -195.0838528 114.73035581 -206 112 C-207.10601562 111.72800781 -208.21203125 111.45601562 -209.3515625 111.17578125 C-213.50160031 110.04558363 -216.09135693 109.27109081 -219 106 C-218.67 105.01 -218.34 104.02 -218 103 C-216.07421875 102.0859375 -216.07421875 102.0859375 -213.6875 101.375 C-212.90761719 101.13523437 -212.12773437 100.89546875 -211.32421875 100.6484375 C-210.55722656 100.43445313 -209.79023438 100.22046875 -209 100 C-208.37480469 99.81050781 -207.74960937 99.62101563 -207.10546875 99.42578125 C-199.74539019 97.93737946 -191.77327143 98.76422488 -184.4375 100 C-171.17021327 102.06646227 -157.30592599 102.92631906 -145 97 C-142.19810898 95.7873077 -139.37862599 94.61668486 -136.5625 93.4375 C-135.75562744 93.09460938 -134.94875488 92.75171875 -134.11743164 92.3984375 C-127.22872372 89.477819 -120.28194817 86.72152308 -113.3125 84 C-102.19175698 79.65202861 -91.08306192 75.27508223 -79.99105835 70.85424805 C-78.27920994 70.17256802 -76.56684728 69.49217761 -74.85391235 68.81323242 C-65.89816965 65.2624945 -56.98759612 61.62821567 -48.16796875 57.75 C-47.43496552 57.43057938 -46.70196228 57.11115875 -45.94674683 56.78205872 C-34.77681008 51.80806683 -27.17380651 44.8263064 -20 35 C-19.55092285 34.38527832 -19.1018457 33.77055664 -18.63916016 33.13720703 C-12.59643463 24.79523784 -7.21076365 16.43841241 -3 7 C-2.66226563 6.24332031 -2.32453125 5.48664062 -1.9765625 4.70703125 C-1.29758308 3.14662443 -0.6443306 1.57503034 0 0 Z " fill="#047F29" transform="translate(502,612)"/>
<path d="M0 0 C1.63332981 0.00239059 3.26666242 0.00328845 4.8999939 0.0027771 C8.29369751 0.0058793 11.68697088 0.02225783 15.08056641 0.04931641 C19.4306246 0.0835656 23.78021856 0.09093587 28.13039589 0.08942604 C31.48982167 0.08996901 34.84914598 0.10091987 38.20853806 0.11542892 C39.81371674 0.12178669 41.41890686 0.12573343 43.02409744 0.12721634 C45.2566634 0.13154495 47.48873212 0.14902774 49.72119141 0.17041016 C50.98992096 0.17803375 52.25865051 0.18565735 53.56582642 0.19351196 C56.6484375 0.4609375 56.6484375 0.4609375 59.6484375 2.4609375 C62.70886838 2.63052621 65.67564486 2.68173466 68.73461914 2.64038086 C69.66509064 2.63585403 70.59556213 2.63132721 71.55422974 2.62666321 C73.57750796 2.61569513 75.60076541 2.60018345 77.62397957 2.58070183 C80.8320609 2.55056077 84.03996029 2.53373516 87.24815369 2.52064514 C96.37089748 2.48088834 105.49342304 2.41608566 114.6159668 2.34448242 C120.19556883 2.3016124 125.77509572 2.27360746 131.35482597 2.25418282 C133.47619758 2.24365361 135.59754896 2.22729959 137.7188282 2.20487785 C140.69814835 2.17345635 143.67703296 2.16086825 146.65649414 2.15209961 C147.52284988 2.13817169 148.38920563 2.12424377 149.28181458 2.1098938 C157.44408778 2.12209071 164.78487604 3.95059711 171.6484375 8.4609375 C172.43476562 8.74066406 173.22109375 9.02039063 174.03125 9.30859375 C179.65251889 11.78363005 183.4492879 16.90846193 186.015625 22.37109375 C190.16010153 34.09360947 189.79916324 46.15395512 189.78125 58.4296875 C189.78192564 60.07621271 189.78289781 61.72273782 189.78414917 63.3692627 C189.78561724 66.81194005 189.78350258 70.25459133 189.77880859 73.69726562 C189.77314799 78.05592714 189.77637261 82.41452655 189.78238106 86.77318573 C189.78604186 90.17436162 189.78482254 93.57552346 189.78225327 96.97669983 C189.78159725 98.58065295 189.78236462 100.18460745 189.78473282 101.78855896 C189.79447325 110.24650623 189.67427828 118.68916796 189.27685547 127.13867188 C189.24808382 127.86743279 189.21931217 128.5961937 189.18966866 129.34703827 C188.64909495 139.38646402 185.08561533 148.52212725 177.6484375 155.4609375 C176.7615625 156.3271875 175.8746875 157.1934375 174.9609375 158.0859375 C167.70275307 163.90018604 159.02572096 166.58205746 149.89042664 166.59465027 C148.87212012 166.5980486 148.87212012 166.5980486 147.83324176 166.60151559 C145.55897654 166.60784412 143.2847711 166.60702693 141.01049805 166.60620117 C139.37909366 166.60919363 137.74768998 166.61259636 136.11628723 166.61637878 C131.68177028 166.62522036 127.24727263 166.62755714 122.81274772 166.62819457 C120.03730618 166.6289057 117.26186954 166.63104135 114.48642921 166.63369179 C104.78871983 166.6429501 95.0910242 166.64702661 85.39331055 166.64624023 C76.38102169 166.64564131 67.36879305 166.65615535 58.3565194 166.6719839 C50.60255011 166.6851126 42.84860035 166.69042181 35.09462005 166.68978482 C30.47140597 166.68953113 25.84824526 166.69230991 21.22504234 166.70296288 C16.86576898 166.71273227 12.50659897 166.71266326 8.1473217 166.70544624 C6.55879819 166.70441085 4.97026794 166.70670005 3.38175583 166.7128067 C-14.21719903 166.77600421 -30.01209609 166.08694517 -43.63671875 153.4375 C-46.73858411 149.86222922 -48.63442018 145.8417741 -50.3515625 141.4609375 C-50.59924692 140.83386147 -50.84693134 140.20678543 -51.10212135 139.56070709 C-53.21282129 133.80852048 -53.78277248 128.77474483 -53.73974609 122.67773438 C-53.74500305 121.74478043 -53.75026001 120.81182648 -53.75567627 119.8506012 C-53.7687858 116.79345523 -53.7601703 113.73683796 -53.75 110.6796875 C-53.75202333 108.53934632 -53.75493693 106.39900582 -53.75869751 104.25866699 C-53.76310862 99.78354294 -53.75672885 95.30859912 -53.74267578 90.83349609 C-53.72558479 85.11401775 -53.73543247 79.39496183 -53.75339317 73.67549896 C-53.76426375 69.25898082 -53.76076964 64.84256187 -53.7530098 60.42604065 C-53.75101684 58.31783497 -53.75343507 56.20962012 -53.76044846 54.10142517 C-53.76811689 51.14875632 -53.75638335 48.19675976 -53.73974609 45.24414062 C-53.74581879 44.38361588 -53.75189148 43.52309113 -53.75814819 42.63648987 C-53.66854743 33.99849649 -51.32099164 27.5143208 -46.3515625 20.4609375 C-45.9184375 19.254375 -45.9184375 19.254375 -45.4765625 18.0234375 C-42.39290459 10.99955005 -37.29927331 7.21427583 -30.3515625 4.4609375 C-20.04754897 0.45923805 -10.86703002 -0.1062368 0 0 Z " fill="#51B0D2" transform="translate(442.3515625,236.5390625)"/>
<path d="M0 0 C0.68900391 -0.02900391 1.37800781 -0.05800781 2.08789062 -0.08789062 C5.32396667 -0.1284586 7.25925562 -0.00907632 9.88208008 1.96044922 C12.18550443 4.9612863 12.17729364 6.61611823 12.1484375 10.37109375 C12.14457031 11.56283203 12.14070313 12.75457031 12.13671875 13.98242188 C12.11222656 15.22572266 12.08773438 16.46902344 12.0625 17.75 C12.06056641 19.56274414 12.06056641 19.56274414 12.05859375 21.41210938 C11.98019685 29.54361006 11.14645872 37.31913174 9.6875 45.3125 C9.53200684 46.20509521 9.37651367 47.09769043 9.21630859 48.01733398 C5.00189512 71.30252007 -2.86743209 94.08950968 -13.3125 115.3125 C-13.71017578 116.13089355 -14.10785156 116.94928711 -14.51757812 117.79248047 C-21.03889968 131.09647426 -28.57737631 143.35222942 -37.3125 155.3125 C-37.98345703 156.23216553 -37.98345703 156.23216553 -38.66796875 157.17041016 C-51.80010593 175.00486261 -66.7904092 192.03086399 -84.2734375 205.7109375 C-86.37765511 207.29811294 -86.37765511 207.29811294 -88.3125 209.3125 C-88.55687562 211.28180242 -88.55687562 211.28180242 -88.4375 213.53125 C-88.42033936 214.37598877 -88.40317871 215.22072754 -88.38549805 216.09106445 C-88.36140869 216.98913818 -88.33731934 217.88721191 -88.3125 218.8125 C-88.23061467 225.91527092 -88.23098817 232.46400252 -90.3125 239.3125 C-90.65410156 240.49199219 -90.99570312 241.67148437 -91.34765625 242.88671875 C-94.86794887 254.50528918 -100.0142551 264.17574856 -108.75 272.6875 C-115.04512803 275.55896191 -122.24225455 275.55479884 -128.859375 273.53515625 C-133.67595336 270.99106129 -135.9495461 267.43552444 -137.703125 262.359375 C-138.89791544 256.3854228 -138.60323016 250.36937834 -138.3125 244.3125 C-139.09786133 244.26762451 -139.88322266 244.22274902 -140.69238281 244.17651367 C-144.31655287 243.96271639 -147.93941641 243.73145454 -151.5625 243.5 C-153.41488281 243.39461914 -153.41488281 243.39461914 -155.3046875 243.28710938 C-177.2211717 241.84523541 -195.91828837 232.95663265 -211.15625 216.9765625 C-216.16162136 210.79238991 -219.01353087 203.99361712 -220.875 196.3125 C-221.75034322 192.75993744 -222.16748126 191.47278387 -224.6875 188.6875 C-230.60433436 185.58820581 -237.53245369 185.63361237 -244.03125 186.80078125 C-248.16355336 187.4452238 -252.19872199 187.5736102 -256.375 187.625 C-257.16455078 187.65400391 -257.95410156 187.68300781 -258.76757812 187.71289062 C-262.6407032 187.75509568 -264.92169676 187.51059175 -268.43359375 185.73046875 C-270.3125 183.3125 -270.3125 183.3125 -270.33984375 180.03515625 C-269.2349397 176.03145451 -267.76926649 172.42777582 -265.875 168.75 C-265.52083008 168.05672607 -265.16666016 167.36345215 -264.80175781 166.64916992 C-257.08014402 151.96437492 -245.61351936 136.11080155 -231.3125 127.3125 C-230.69246094 126.92707031 -230.07242188 126.54164063 -229.43359375 126.14453125 C-219.46441485 120.56581902 -207.38329744 120.84469144 -196.25 120.25 C-194.13306677 120.13417189 -192.0163176 120.01632535 -189.89979553 119.89320374 C-188.00370451 119.78322307 -186.1072051 119.68035094 -184.21069336 119.57788086 C-181.37521925 119.49543922 -181.37521925 119.49543922 -179.3125 118.3125 C-178.33639149 115.38417447 -178.21813816 113.36388359 -178.125 110.3125 C-176.13993205 88.03886986 -150.92849122 67.02565874 -135.0390625 53.49609375 C-125.90004643 45.9333358 -115.87269258 39.81119383 -105.70117188 33.74609375 C-103.69531594 32.54225216 -101.71135202 31.31281686 -99.734375 30.0625 C-71.67234266 12.92116005 -32.96433392 0.47590472 0 0 Z " fill="#F04F11" transform="translate(735.3125,402.6875)"/>
<path d="M0 0 C6.09818228 4.05844545 10.33630699 8.76293539 12 16 C12.90637826 24.68612495 12.83859804 32.52908291 8 40 C7.61070312 40.62261719 7.22140625 41.24523437 6.8203125 41.88671875 C2.12241202 48.29421023 -5.29841255 52.2133998 -13.05859375 53.51171875 C-21.38371706 53.82567008 -29.30369455 52.32115803 -35.6171875 46.6484375 C-42.695257 38.98241334 -44.58770187 34.28855899 -44.3125 23.8359375 C-43.63061976 15.4658575 -40.25201426 8.62107704 -34 3 C-23.29133211 -5.05291825 -11.90814682 -6.57672161 0 0 Z " fill="#FEFDFC" transform="translate(672,476)"/>
<path d="M0 0 C4.56276445 3.39554564 8.08630164 6.90747209 9.203125 12.65234375 C9.50341159 20.29892718 7.52797305 26.65826701 2.5625 32.5 C-1.36448291 35.64158633 -5.12027603 35.1133311 -9.9375 35.0625 C-11.14019531 35.05573242 -11.14019531 35.05573242 -12.3671875 35.04882812 C-14.34899006 35.03703168 -16.33075433 35.01909605 -18.3125 35 C-18.3125 34.34 -18.3125 33.68 -18.3125 33 C-19.1478125 32.7215625 -19.1478125 32.7215625 -20 32.4375 C-23.52623593 30.2455155 -25.7075421 27.78084943 -27.3125 24 C-28.17830892 18.05033868 -28.23630387 12.88060073 -25.5625 7.4375 C-24.82 6.633125 -24.0775 5.82875 -23.3125 5 C-22.673125 4.2575 -22.03375 3.515 -21.375 2.75 C-15.39588556 -2.32318801 -7.20448699 -2.17493947 0 0 Z " fill="#106587" transform="translate(456.3125,285)"/>
<path d="M0 0 C1.07824539 -0.00556915 2.15649078 -0.01113831 3.26741028 -0.01687622 C5.0418602 -0.00305405 5.0418602 -0.00305405 6.85215759 0.01104736 C8.09784012 0.00900299 9.34352264 0.00695862 10.62695312 0.00485229 C14.04436196 0.00235703 17.46122841 0.01325799 20.87856221 0.0303793 C24.45173873 0.04540543 28.02491119 0.04424102 31.59811401 0.04504395 C37.59788658 0.04873712 43.59754478 0.0637077 49.59727478 0.08624268 C57.30390133 0.11512935 65.01043582 0.12546705 72.71711063 0.12992477 C79.33659201 0.13390193 85.95605328 0.14640344 92.57552028 0.16027164 C94.70650547 0.16437351 96.83748995 0.16729765 98.96847725 0.17006683 C102.93363938 0.17586126 106.89874097 0.1905338 110.86387634 0.20635986 C112.64136261 0.20803665 112.64136261 0.20803665 114.45475769 0.20974731 C115.53018326 0.21545746 116.60560883 0.2211676 117.71362305 0.22705078 C118.65179902 0.23002544 119.58997499 0.23300011 120.55658054 0.23606491 C122.7933197 0.36749268 122.7933197 0.36749268 124.7933197 1.36749268 C124.7933197 3.67749268 124.7933197 5.98749268 124.7933197 8.36749268 C81.2333197 8.36749268 37.6733197 8.36749268 -7.2066803 8.36749268 C-8.2066803 3.36749268 -8.2066803 3.36749268 -7.09459782 1.57796097 C-4.59618579 -0.02393557 -2.96307861 -0.00463004 0 0 Z " fill="#015678" transform="translate(450.20668029785156,359.63250732421875)"/>
<path d="M0 0 C5.97117363 2.58926998 11.47387071 5.79950083 14 12 C14.91198989 17.26843743 15.15928674 21.89108475 12.53125 26.671875 C10.79212485 28.92684235 9.00400035 30.97883476 7 33 C6.26716797 33.83337891 6.26716797 33.83337891 5.51953125 34.68359375 C1.92928081 37.79391354 -3.09827556 37.28231434 -7.60546875 37.203125 C-10.93130324 36.92099875 -12.49346933 36.22802726 -15 34 C-19.88512785 28.14503059 -22.39898251 24.37657201 -22.265625 16.6640625 C-21.73913692 11.38369678 -19.91783197 7.79509072 -16.046875 4.171875 C-10.93075553 0.34372966 -6.3428436 -1.59101428 0 0 Z " fill="#126789" transform="translate(574,283)"/>
<path d="M0 0 C-1.33929703 2.95680553 -2.84256741 5.08111765 -5.0625 7.4375 C-12.74425692 16.05955496 -18.64065395 25.77489368 -24.078125 35.90625 C-26.71316837 40.14802712 -29.00278933 43.35512407 -33.8671875 44.92578125 C-34.85976563 45.05339844 -35.85234375 45.18101562 -36.875 45.3125 C-38.44507813 45.51746094 -38.44507813 45.51746094 -40.046875 45.7265625 C-48.90625 46.546875 -48.90625 46.546875 -52 45 C-52.34 35.14 -52.34 35.14 -50 31 C-45.76469988 27.64256209 -41.79443326 25.18563103 -36.375 24.625 C-35.59125 24.74875 -34.8075 24.8725 -34 25 C-33.67 22.69 -33.34 20.38 -33 18 C-32.01 17.67 -31.02 17.34 -30 17 C-30 16.34 -30 15.68 -30 15 C-29.34 15 -28.68 15 -28 15 C-27.690625 13.9171875 -27.690625 13.9171875 -27.375 12.8125 C-25.6366277 9.25673848 -23.38951657 6.97137401 -20 5 C-17.67504723 4.61250787 -15.3400417 4.28241883 -13 4 C-11.60232928 3.35984547 -10.22691 2.66936105 -8.875 1.9375 C-5.76405659 0.26097991 -3.60379152 -0.45047394 0 0 Z " fill="#048524" transform="translate(569,467)"/>
<path d="M0 0 C-0.66 0.99 -1.32 1.98 -2 3 C-1.01 3.33 -0.02 3.66 1 4 C-2.2107586 9.6805729 -2.2107586 9.6805729 -5.64453125 11.0703125 C-10.12997628 12.31307841 -14.6381956 13.42374937 -19.16601562 14.5 C-23.82982471 15.63384152 -28.17496669 16.71174119 -32.125 19.5 C-35.74165606 21.38695099 -39.14634697 21.82151164 -43.1484375 22.46875 C-48.26179825 23.42137611 -53.06811345 25.14138376 -57.8125 27.25 C-60.38721246 28.13275856 -61.43087209 27.66300075 -64 27 C-64.66 27.33 -65.32 27.66 -66 28 C-68 29 -68 29 -70.25 28.625 C-71.11625 28.315625 -71.11625 28.315625 -72 28 C-72 27.01 -72 26.02 -72 25 C-69 24 -69 24 -65 24 C-62.52816144 23.24914051 -62.52816144 23.24914051 -59.9296875 22.171875 C-58.95 21.78386719 -57.9703125 21.39585937 -56.9609375 20.99609375 C-55.94257813 20.58488281 -54.92421875 20.17367187 -53.875 19.75 C-52.87984375 19.35425781 -51.8846875 18.95851563 -50.859375 18.55078125 C-47.90353708 17.3738484 -44.9516216 16.18746007 -42 15 C-40.40894455 14.36565868 -38.81780178 13.73153631 -37.2265625 13.09765625 C-33.64832062 11.66764587 -30.07876236 10.21728805 -26.51217651 8.75845337 C-23.85593257 7.67334267 -21.1971732 6.59447888 -18.53808594 5.51635742 C-17.16394525 4.95751607 -15.79091759 4.39593104 -14.41894531 3.83178711 C-12.41756698 3.00953921 -10.41242477 2.19718062 -8.40625 1.38671875 C-7.22353516 0.90420654 -6.04082031 0.42169434 -4.82226562 -0.07543945 C-2 -1 -2 -1 0 0 Z M-74 28 C-73.34 28.33 -72.68 28.66 -72 29 C-74.83430453 32.2542015 -76.68607774 33.5206753 -81 34 C-80 31 -80 31 -77.0625 29.25 C-76.051875 28.8375 -75.04125 28.425 -74 28 Z " fill="#2E9B49" transform="translate(433,682)"/>
<path d="M0 0 C0.44988281 0.36351562 0.89976562 0.72703125 1.36328125 1.1015625 C16.03602221 12.5692358 28.81074816 14.11836464 46.96166992 14.02539062 C49.57034082 14.01883387 52.17901432 14.01325602 54.78768921 14.00854492 C55.46136821 14.00716192 56.13504721 14.00577891 56.82914072 14.004354 C64.23698683 13.99207912 71.64438847 14.0381734 79.05200195 14.09179688 C79.73671298 14.0966532 80.42142401 14.10150953 81.12688386 14.10651302 C85.42078803 14.13710477 89.71467916 14.16927225 94.00856805 14.20192909 C97.82676653 14.2307335 101.64497402 14.25829643 105.46318054 14.28601074 C112.64103773 14.33828956 119.81888661 14.39162836 126.99673289 14.4453826 C135.1907137 14.50669235 143.38470343 14.56676775 151.57869399 14.62675762 C168.38580602 14.74983261 185.19290665 14.87439873 202 15 C198.32250394 17.45166404 196.55040894 17.24914216 192.1632843 17.24723816 C191.11434967 17.25085978 191.11434967 17.25085978 190.04422444 17.25455457 C187.69516015 17.26020138 185.34636663 17.25152095 182.99731445 17.24291992 C181.31529161 17.24399261 179.63326912 17.2459311 177.95124817 17.24867249 C173.37661804 17.25352793 168.80208519 17.24585491 164.22746682 17.23571944 C159.43990961 17.22694278 154.65235549 17.22869636 149.86479187 17.2290802 C141.81878023 17.22814289 133.77280624 17.21945267 125.72680664 17.20581055 C116.4332364 17.19011102 107.13970749 17.18481151 97.84612495 17.1855461 C87.94830535 17.18622273 78.05050163 17.17927167 68.15268683 17.1700995 C65.30440507 17.16797146 62.45612588 17.16725874 59.6078434 17.16686058 C55.12222353 17.16585272 50.63663808 17.15971997 46.15102959 17.14969444 C44.50796851 17.14678403 42.86490346 17.14554111 41.2218399 17.14612198 C38.97173515 17.14661624 36.72172536 17.14092219 34.47163391 17.13371277 C33.21451756 17.13203692 31.95740122 17.13036108 30.66219044 17.12863445 C24.83305999 16.92388622 19.35331174 16.50936488 14 14 C14 13.34 14 12.68 14 12 C13.43667969 11.74089844 12.87335938 11.48179687 12.29296875 11.21484375 C9.75539889 9.87040725 7.58886526 8.31210305 5.3125 6.5625 C4.52488281 5.96566406 3.73726563 5.36882812 2.92578125 4.75390625 C1 3 1 3 0 0 Z " fill="#1E93B2" transform="translate(397,388)"/>
<path d="M0 0 C0.99 0 1.98 0 3 0 C3 4.02371328 0.99452229 5.83667699 -1.4375 8.8125 C-16.54312833 27.57328903 -16.54312833 27.57328903 -22 50.1875 C-21.88984263 54.77968526 -21.88984263 54.77968526 -23 57 C-23.66 57 -24.32 57 -25 57 C-25.12375 56.360625 -25.2475 55.72125 -25.375 55.0625 C-25.58125 54.381875 -25.7875 53.70125 -26 53 C-26.66 52.67 -27.32 52.34 -28 52 C-31.18917941 45.30119731 -33.40998754 36.21517741 -31 29 C-28.41686955 24.75033378 -28.41686955 24.75033378 -26 23 C-22.66101594 22.20865057 -19.42469479 22.01329979 -16 22 C-16 21.34 -16 20.68 -16 20 C-15.34 20 -14.68 20 -14 20 C-13.34 18.68 -12.68 17.36 -12 16 C-11.34 16 -10.68 16 -10 16 C-9.979375 15.278125 -9.95875 14.55625 -9.9375 13.8125 C-8.87014225 10.61042675 -8.29146295 10.30631865 -5.5625 8.5625 C-2.58950989 6.64955145 -2.05341452 6.12308564 -0.5625 2.6875 C-0.376875 1.800625 -0.19125 0.91375 0 0 Z " fill="#058257" transform="translate(473,536)"/>
<path d="M0 0 C0.66 0.66 1.32 1.32 2 2 C1.401875 2.721875 0.80375 3.44375 0.1875 4.1875 C-1.97179381 6.84351828 -1.97179381 6.84351828 -3.375 9.3125 C-5.21899942 12.36219136 -7.32019111 15.12191351 -9.5 17.9375 C-13.15739053 22.96641197 -15.72812282 28.47159545 -18.40234375 34.0625 C-20.01818366 37.03343303 -21.72486919 39.49965422 -24 42 C-24.66 42 -25.32 42 -26 42 C-26.12375 43.60875 -26.12375 43.60875 -26.25 45.25 C-27.09499958 49.4749979 -27.97730847 50.15511385 -31 53 C-32.01965427 55.32481174 -33.02059602 57.65794699 -34 60 C-35.375 61.625 -35.375 61.625 -37 63 C-37.886875 63.886875 -38.77375 64.77375 -39.6875 65.6875 C-40.450625 66.450625 -41.21375 67.21375 -42 68 C-41.49283137 61.75337299 -39.39663033 56.82893155 -36.75 51.1875 C-36.34177002 50.30473389 -35.93354004 49.42196777 -35.51293945 48.51245117 C-34.70853098 46.77934999 -33.89984568 45.04822598 -33.08642578 43.31933594 C-32.18313176 41.39095545 -31.30509791 39.45076692 -30.43359375 37.5078125 C-30.02238281 36.61835937 -29.61117188 35.72890625 -29.1875 34.8125 C-28.85105469 34.07644531 -28.51460938 33.34039063 -28.16796875 32.58203125 C-26.63879893 30.51074772 -25.49656975 30.37619544 -23 30 C-20.80092298 29.48396654 -20.80092298 29.48396654 -19 28 C-18.59201172 26.45892578 -18.59201172 26.45892578 -18.17578125 24.88671875 C-17.01495892 20.51906872 -14.84507504 17.14196916 -12.3125 13.4375 C-11.86986816 12.77999756 -11.42723633 12.12249512 -10.97119141 11.44506836 C-7.79858872 6.85598176 -4.56178363 3.27258391 0 0 Z " fill="#1E923C" transform="translate(433,729)"/>
<path d="M0 0 C2.74219766 3.98962875 2.1865886 8.18361935 2.0625 12.8125 C1.96541086 17.17431949 1.90298903 21.32309509 2.5234375 25.65234375 C3.02630263 29.18476517 2.88196578 32.20038018 2.5625 35.75 C1.96758498 43.45745456 1.88286893 51.14666584 1.875 58.875 C1.87056885 60.01549805 1.8661377 61.15599609 1.86157227 62.33105469 C1.87154331 68.27726644 2.09513511 74.07103068 2.87719727 79.96875 C3.041909 82.69320647 2.3343341 84.64529276 1 87 C-1.4817568 83.21455279 -1.27557387 79.39723693 -1.24291992 75.03442383 C-1.24481827 74.23565323 -1.24671661 73.43688263 -1.24867249 72.61390686 C-1.2523723 69.9781813 -1.2416897 67.34273224 -1.23046875 64.70703125 C-1.22927667 62.87668388 -1.22882385 61.0463359 -1.2290802 59.21598816 C-1.22751685 55.38361777 -1.21923662 51.55134099 -1.20581055 47.71899414 C-1.18878493 42.79573719 -1.1849973 37.87258276 -1.18575573 32.94929981 C-1.18548448 29.17220574 -1.18001118 25.39513429 -1.17275429 21.61804771 C-1.16956307 19.80187845 -1.16759916 17.98570661 -1.16686058 16.16953468 C-1.16470384 13.63877573 -1.15597522 11.10812786 -1.14526367 8.57739258 C-1.14571686 7.82051147 -1.14617004 7.06363037 -1.14663696 6.28381348 C-1.1144774 1.1144774 -1.1144774 1.1144774 0 0 Z " fill="#35A3C8" transform="translate(390,286)"/>
<path d="M0 0 C1.49593115 0.08961429 2.98802219 0.24553983 4.47518921 0.43040466 C9.4741467 0.98266505 14.37176595 1.13595178 19.39697266 1.11352539 C20.27625427 1.11367142 21.15553589 1.11381744 22.0614624 1.1139679 C24.92902206 1.11327869 27.79651438 1.10553342 30.6640625 1.09765625 C32.66759201 1.09578854 34.67112197 1.0943663 36.6746521 1.09336853 C41.91885667 1.08957117 47.16303304 1.07976496 52.40722656 1.06866455 C57.77017841 1.05839031 63.13313487 1.05385808 68.49609375 1.04882812 C78.99740814 1.03813992 89.49870172 1.02109732 100 1 C100 1.66 100 2.32 100 3 C101.98 3 103.96 3 106 3 C106 3.66 106 4.32 106 5 C105.04405945 4.83635956 104.0881189 4.67271912 103.10321045 4.50411987 C98.51203375 3.85279613 93.97761057 3.89023569 89.34863281 3.93408203 C87.93518333 3.94109131 87.93518333 3.94109131 86.49317932 3.94824219 C84.45796787 3.95870259 82.42276673 3.97135105 80.38758087 3.98596573 C77.16852137 4.0080499 73.94952121 4.02208752 70.73040771 4.03366089 C61.58174557 4.06720989 52.43318287 4.10910934 43.28466797 4.17138672 C37.68102009 4.20896057 32.07747169 4.23203147 26.47371674 4.24569321 C24.33819543 4.25376062 22.20268775 4.26738788 20.06723785 4.28662491 C17.08929506 4.3130015 14.11183384 4.32098734 11.13378906 4.32470703 C10.24855057 4.3370639 9.36331207 4.34942078 8.45124817 4.3621521 C7.23597694 4.35813385 7.23597694 4.35813385 5.99615479 4.35403442 C5.29270054 4.35809862 4.58924629 4.36216282 3.86447525 4.36635017 C1.46056495 3.89400657 0.5549632 2.83807693 -1 1 C-0.67 0.67 -0.34 0.34 0 0 Z " fill="#227D9F" transform="translate(500,236)"/>
<path d="M0 0 C0.495 1.485 0.495 1.485 1 3 C0.48912842 3.20318848 -0.02174316 3.40637695 -0.5480957 3.61572266 C-10.25292368 7.48619185 -19.92896464 11.4279805 -29.60961914 15.35839844 C-39.01229968 19.17552638 -48.41997505 22.97839087 -57.84912109 26.72973633 C-60.72763967 27.89019907 -63.58549102 29.08860528 -66.4375 30.3125 C-76.49075833 34.53959617 -86.77740789 38.20682809 -97 42 C-97.33 41.34 -97.66 40.68 -98 40 C-76.203125 31.28125 -76.203125 31.28125 -72.79199219 29.91699219 C-70.33413099 28.93371218 -67.87643792 27.95002042 -65.41894531 26.96582031 C-59.01903473 24.40338029 -52.61720407 21.84603882 -46.20909119 19.3041687 C-22.91846368 10.09311016 -22.91846368 10.09311016 0 0 Z " fill="#0C7419" transform="translate(462,666)"/>
<path d="M0 0 C5.23544208 4.54656812 6.75516305 8.57710292 7.24723816 15.45646667 C7.24510063 17.27081963 7.24510063 17.27081963 7.24291992 19.12182617 C7.24481827 19.79607635 7.24671661 20.47032654 7.24867249 21.16500854 C7.25234973 23.3744504 7.2417133 25.58355651 7.23046875 27.79296875 C7.22927426 29.34605369 7.22882436 30.89913936 7.2290802 32.45222473 C7.22752016 35.70265246 7.21927197 38.95296932 7.20581055 42.20336914 C7.18889273 46.33739574 7.18499465 50.47130001 7.18575573 54.60535717 C7.18548153 57.81328974 7.17995953 61.0211964 7.17275429 64.22912025 C7.16960566 65.75150672 7.16760928 67.27389609 7.16686058 68.79628563 C7.15782116 77.57462443 6.90878879 86.2622978 6 95 C5.67 95 5.34 95 5 95 C4.84596371 85.06415975 4.69778425 75.12825095 4.5570364 65.19221306 C4.49149527 60.57828878 4.42395356 55.96441203 4.35180664 51.35058594 C4.28222722 46.89620943 4.2179463 42.44178482 4.15730476 37.98727798 C4.13326926 36.28964599 4.10733972 34.59203971 4.07946587 32.8944664 C4.04068699 30.51285567 4.00870444 28.13124173 3.97827148 25.74951172 C3.96532547 25.05107651 3.95237946 24.3526413 3.93904114 23.63304138 C3.89620597 19.64045449 4.2237528 15.91617768 5 12 C4.34 11.67 3.68 11.34 3 11 C2.63729412 9.00511766 2.30830925 7.00401011 2 5 C1.37774395 3.31624835 0.72455635 1.64232772 0 0 Z " fill="#6BBFDA" transform="translate(624,256)"/>
<path d="M0 0 C0.66 0 1.32 0 2 0 C4.31 4.62 6.62 9.24 9 14 C8.01 14.495 8.01 14.495 7 15 C6.34 14.67 5.68 14.34 5 14 C5 13.34 5 12.68 5 12 C-0.90084123 14.68220056 -5.62198057 20.47405554 -7.96484375 26.46875 C-9.19309799 29.47217923 -10.83463774 31.60726997 -12.875 34.125 C-13.55304688 34.97320313 -14.23109375 35.82140625 -14.9296875 36.6953125 C-16.82485144 38.8050233 -18.66951219 40.40105545 -21 42 C-19.70904296 36.95353157 -17.78830497 34.51111193 -14 31 C-13.1646875 29.8553125 -13.1646875 29.8553125 -12.3125 28.6875 C-11.879375 28.130625 -11.44625 27.57375 -11 27 C-10.34 27 -9.68 27 -9 27 C-8.67 24.69 -8.34 22.38 -8 20 C-7.01 19.67 -6.02 19.34 -5 19 C-5.103125 17.906875 -5.20625 16.81375 -5.3125 15.6875 C-5.36486313 9.85424717 -2.61442364 5.07945165 0 0 Z " fill="#108731" transform="translate(502,612)"/>
<path d="M0 0 C0.70327927 -0.00029205 1.40655853 -0.00058411 2.13114929 -0.00088501 C4.43074349 0.00049632 6.73000418 0.01600021 9.02954102 0.03173828 C10.63379235 0.03547268 12.23804598 0.03831764 13.84230042 0.04031372 C18.04595335 0.04791656 22.24946608 0.06753594 26.45306396 0.08972168 C30.7500214 0.11025259 35.0470017 0.11933088 39.34399414 0.12939453 C47.76137589 0.15078528 56.17864409 0.18488035 64.59594727 0.22705078 C64.59594727 0.88705078 64.59594727 1.54705078 64.59594727 2.22705078 C63.28835449 2.24251198 63.28835449 2.24251198 61.9543457 2.25828552 C53.71573447 2.35649995 45.47719079 2.4590471 37.23869324 2.56639004 C33.00379897 2.62141737 28.76889759 2.67480357 24.53393555 2.72436523 C20.44252929 2.77230849 16.35120046 2.82465931 12.2598877 2.87999153 C10.70351098 2.90028021 9.14711315 2.91901429 7.59069824 2.9361248 C5.40096459 2.96047047 3.2113731 2.99047944 1.02172852 3.02172852 C-0.84358521 3.04504494 -0.84358521 3.04504494 -2.74658203 3.0688324 C-6.68977169 3.23941069 -10.49576675 3.6885753 -14.40405273 4.22705078 C-14.40405273 3.56705078 -14.40405273 2.90705078 -14.40405273 2.22705078 C-9.43309692 0.61361102 -5.27928797 -0.01855637 0 0 Z " fill="#227DA1" transform="translate(431.404052734375,234.77294921875)"/>
<path d="M0 0 C-0.4846875 0.4125 -0.969375 0.825 -1.46875 1.25 C-5.14298624 4.41549583 -8.75529614 7.63667598 -12.25 11 C-12.87390625 11.598125 -13.4978125 12.19625 -14.140625 12.8125 C-19.0207952 18.55387671 -20.76483158 24.05629717 -22.125 31.3125 C-23.74926108 39.74926108 -23.74926108 39.74926108 -26 42 C-26.49360899 31.19544768 -25.27463131 23.90592832 -19 15 C-18.566875 13.7934375 -18.566875 13.7934375 -18.125 12.5625 C-15.37070617 6.28883072 -10.89182108 2.49540755 -4.83203125 -0.46875 C-3 -1 -3 -1 0 0 Z " fill="#35A2C4" transform="translate(415,242)"/>
<path d="M0 0 C7.21926552 0.16327903 12.66598415 4.16598415 17.625 9.125 C19.73859875 14.31292421 20.07257508 18.99599632 19 24.5 C17.09547335 27.96461763 14.77488302 30.70134924 12 33.5 C11.26716797 34.33337891 11.26716797 34.33337891 10.51953125 35.18359375 C6.95462907 38.27195374 1.90308622 37.82065622 -2.58203125 37.80078125 C-5.94802522 37.38207118 -7.71703751 35.93515999 -10 33.5 C-8.68 33.5 -7.36 33.5 -6 33.5 C-6 34.16 -6 34.82 -6 35.5 C-1.38 35.5 3.24 35.5 8 35.5 C8 34.51 8 33.52 8 32.5 C10.375 29.9375 10.375 29.9375 13 27.5 C15.81484045 24.68515955 15.62757042 22.2833753 16.125 18.375 C16.29257812 17.09367187 16.46015625 15.81234375 16.6328125 14.4921875 C16.75398437 13.50476563 16.87515625 12.51734375 17 11.5 C16.34 11.5 15.68 11.5 15 11.5 C13.29115995 9.87660195 11.62553283 8.20680947 10 6.5 C7.18515955 3.68515955 4.7833753 3.87242958 0.875 3.375 C-0.40632812 3.20742188 -1.68765625 3.03984375 -3.0078125 2.8671875 C-4.48894531 2.68542969 -4.48894531 2.68542969 -6 2.5 C-3.69762265 0.19762265 -3.13835735 0.13450103 0 0 Z " fill="#2685A4" transform="translate(569,282.5)"/>
<path d="M0 0 C3.28620483 0.2428604 4.12785017 1.1396997 6.40234375 3.625 C7.25974137 4.74061971 8.10425737 5.86622544 8.9375 7 C9.59564697 7.87652222 9.59564697 7.87652222 10.26708984 8.77075195 C19 20.59244671 19 20.59244671 19 25 C19.66 25 20.32 25 21 25 C20.67 25.99 20.34 26.98 20 28 C15.11682489 29.01871227 11.38456255 29.65965743 6.9375 27.0625 C5.968125 26.381875 4.99875 25.70125 4 25 C4 24.67 4 24.34 4 24 C8.34363544 24.51101593 11.98331946 25.29343106 16 27 C12.16361358 18.48509354 7.51952283 11.21162577 1.9765625 3.73828125 C0 1 0 1 0 0 Z " fill="#A7D2A8" transform="translate(672,814)"/>
<path d="M0 0 C0 3.78713193 -1.26892594 5.83354401 -3 9.1875 C-3.556875 10.27417969 -4.11375 11.36085938 -4.6875 12.48046875 C-5.3371875 13.72763672 -5.3371875 13.72763672 -6 15 C-6.66 15 -7.32 15 -8 15 C-8.33 16.98 -8.66 18.96 -9 21 C-9.66 21 -10.32 21 -11 21 C-11.33 22.32 -11.66 23.64 -12 25 C-12.66 25 -13.32 25 -14 25 C-14.103125 25.598125 -14.20625 26.19625 -14.3125 26.8125 C-15.08876455 29.28243264 -16.07088921 30.32251235 -18 32 C-17.12914694 25.69151273 -14.84841165 20.51757268 -12.25 14.75 C-11.81945312 13.74453125 -11.38890625 12.7390625 -10.9453125 11.703125 C-10.51476562 10.7440625 -10.08421875 9.785 -9.640625 8.796875 C-9.25422852 7.92385742 -8.86783203 7.05083984 -8.46972656 6.15136719 C-6.62921613 3.45725125 -5.04107915 3.02013175 -2 2 C-1.34 1.34 -0.68 0.68 0 0 Z " fill="#269644" transform="translate(412,757)"/>
<path d="M0 0 C0.33 0.99 0.66 1.98 1 3 C-0.36328125 5.48046875 -0.36328125 5.48046875 -2.3125 8.1875 C-2.94800781 9.08855469 -3.58351563 9.98960937 -4.23828125 10.91796875 C-4.81964844 11.60503906 -5.40101563 12.29210937 -6 13 C-6.66 13 -7.32 13 -8 13 C-8.0825 14.0725 -8.165 15.145 -8.25 16.25 C-9.09499958 20.4749979 -9.97730847 21.15511385 -13 24 C-14.01965427 26.32481174 -15.02059602 28.65794699 -16 31 C-17.375 32.625 -17.375 32.625 -19 34 C-19.886875 34.886875 -20.77375 35.77375 -21.6875 36.6875 C-22.450625 37.450625 -23.21375 38.21375 -24 39 C-23.25 32.375 -23.25 32.375 -21 29 C-20.67 29.33 -20.34 29.66 -20 30 C-19.01 28.02 -18.02 26.04 -17 24 C-16.34 24 -15.68 24 -15 24 C-14.67 22.68 -14.34 21.36 -14 20 C-13.34 20 -12.68 20 -12 20 C-11.67 18.02 -11.34 16.04 -11 14 C-10.34 14 -9.68 14 -9 14 C-8.7525 13.29875 -8.505 12.5975 -8.25 11.875 C-6.27669894 7.33640756 -3.69361057 3.32424952 0 0 Z " fill="#178E38" transform="translate(415,758)"/>
<path d="M0 0 C0.70125 0.268125 1.4025 0.53625 2.125 0.8125 C1.361875 1.3075 0.59875 1.8025 -0.1875 2.3125 C-2.84029018 4.78021179 -3.26324515 5.44796523 -4.25 8.6875 C-5.77687066 13.34663676 -8.61166315 16.39202489 -12.875 18.8125 C-14.195 18.8125 -15.515 18.8125 -16.875 18.8125 C-16.545 16.8325 -16.215 14.8525 -15.875 12.8125 C-14.885 12.4825 -13.895 12.1525 -12.875 11.8125 C-12.875 11.1525 -12.875 10.4925 -12.875 9.8125 C-12.215 9.8125 -11.555 9.8125 -10.875 9.8125 C-10.66875 9.090625 -10.4625 8.36875 -10.25 7.625 C-8.13568109 3.30025678 -5.18858741 -0.33838614 0 0 Z " fill="#017C50" transform="translate(551.875,472.1875)"/>
<path d="M0 0 C12.35191641 -0.0231325 24.7038277 -0.04091974 37.05576134 -0.05181217 C42.79076272 -0.057039 48.52574932 -0.06413305 54.26074219 -0.07543945 C59.79148123 -0.08627539 65.32220603 -0.09227835 70.85295486 -0.09487724 C72.96694793 -0.09673021 75.08094019 -0.10034838 77.19492722 -0.10573006 C80.14738422 -0.11294983 83.09978174 -0.11399054 86.05224609 -0.11352539 C87.37394051 -0.1189183 87.37394051 -0.1189183 88.72233582 -0.12442017 C94.77189568 -0.11405216 94.77189568 -0.11405216 97 1 C97 3.31 97 5.62 97 8 C96.67 8 96.34 8 96 8 C96 6.35 96 4.7 96 3 C92.04549644 1.68183215 88.24680308 1.82231797 84.12231445 1.79467773 C82.76103424 1.77982834 82.76103424 1.77982834 81.37225342 1.76467896 C78.36928933 1.7330638 75.36630942 1.7083064 72.36328125 1.68359375 C70.28248175 1.66302424 68.20168644 1.64202777 66.12089539 1.62062073 C60.64154442 1.56539976 55.16215574 1.51599055 49.68273926 1.46777344 C44.09249511 1.41755863 38.5023058 1.36187245 32.91210938 1.30664062 C21.94145308 1.19905873 10.9707492 1.09761378 0 1 C0 0.67 0 0.34 0 0 Z " fill="#035C7F" transform="translate(478,360)"/>
<path d="M0 0 C-3.39795747 2.74028828 -5.67426491 3.38203784 -10 4 C-12.42449427 4.88163428 -14.69491037 5.84745519 -17 7 C-17.61875 6.814375 -18.2375 6.62875 -18.875 6.4375 C-21.04160178 5.76313824 -21.04160178 5.76313824 -23 7 C-25 8 -25 8 -27.25 7.625 C-27.8275 7.41875 -28.405 7.2125 -29 7 C-29 6.01 -29 5.02 -29 4 C-26 3 -26 3 -22 3 C-19.65880445 2.36149212 -17.32548007 1.69356423 -15 1 C-10.05032009 -0.33775133 -5.0873124 -0.08890449 0 0 Z M-31 7 C-30.34 7.33 -29.68 7.66 -29 8 C-31.83430453 11.2542015 -33.68607774 12.5206753 -38 13 C-37 10 -37 10 -34.0625 8.25 C-33.051875 7.8375 -32.04125 7.425 -31 7 Z " fill="#20933F" transform="translate(390,703)"/>
<path d="M0 0 C0.99 0.33 1.98 0.66 3 1 C2.67 1.66 2.34 2.32 2 3 C0.66666667 3.33333333 -0.66666667 3.66666667 -2 4 C-2.763125 4.495 -3.52625 4.99 -4.3125 5.5 C-9.89833262 8.61767402 -16.1294675 8.08012682 -22.3515625 7.9375 C-25.0165864 8.00039142 -27.40739533 8.40098665 -30 9 C-27.36114619 5.78419249 -24.26914567 4.70559724 -20.4375 3.25 C-19.28121094 2.80140625 -18.12492187 2.3528125 -16.93359375 1.890625 C-14 1 -14 1 -12 2 C-11.67 2.33 -11.34 2.66 -11 3 C-8.918548 2.70881428 -8.918548 2.70881428 -6.5625 2.125 C-5.75941406 1.94195313 -4.95632813 1.75890625 -4.12890625 1.5703125 C-1.9685643 1.06783822 -1.9685643 1.06783822 0 0 Z " fill="#279844" transform="translate(405,696)"/>
<path d="M0 0 C-0.55429687 0.21011719 -1.10859375 0.42023438 -1.6796875 0.63671875 C-4.25793194 1.87078949 -6.00034973 2.93505503 -8 5 C-9.30070281 9.29752207 -9.73808758 13.52784535 -10 18 C-9.01 18.33 -8.02 18.66 -7 19 C-7 19.33 -7 19.66 -7 20 C-11.62 20.33 -16.24 20.66 -21 21 C-18.8614515 18.8614515 -17.86724686 18.57344937 -15 18 C-14.74476563 16.66195313 -14.74476563 16.66195313 -14.484375 15.296875 C-14.24203125 14.12640625 -13.9996875 12.9559375 -13.75 11.75 C-13.51796875 10.58984375 -13.2859375 9.4296875 -13.046875 8.234375 C-11.67800465 4.00517854 -9.64840758 2.08176747 -6 -0.3125 C-3.57796433 -1.14507476 -2.41196533 -0.69846496 0 0 Z " fill="#087764" transform="translate(527,494)"/>
<path d="M0 0 C-1.45124634 3.82601307 -3.35774704 5.22329124 -7 7 C-7.99 7 -8.98 7 -10 7 C-12.18777466 8.9375006 -12.18777466 8.9375006 -14 11 C-14 10.01 -14 9.02 -14 8 C-14.66 8 -15.32 8 -16 8 C-16.2475 8.598125 -16.495 9.19625 -16.75 9.8125 C-18.16370012 12.28647521 -19.65055383 13.43370255 -22 15 C-21.65930765 11.84859577 -21.41923159 10.39218439 -19.0625 8.1875 C-17 7 -17 7 -15 7 C-15 6.34 -15 5.68 -15 5 C-13.44424022 4.15415002 -11.8800388 3.32381601 -10.3125 2.5 C-9.44238281 2.0359375 -8.57226562 1.571875 -7.67578125 1.09375 C-4.88211171 -0.04818792 -2.98370887 -0.21504208 0 0 Z " fill="#078F2E" transform="translate(569,467)"/>
<path d="M0 0 C9.84188923 9.22677115 16.66483119 20.4876371 23.66992188 31.89648438 C24.86115335 33.78041434 26.12144841 35.58162677 27.421875 37.390625 C27.94265625 38.25171875 28.4634375 39.1128125 29 40 C28.67 40.99 28.34 41.98 28 43 C27.64808594 42.45698242 27.29617188 41.91396484 26.93359375 41.35449219 C22.96365881 35.23115258 18.98475188 29.11370681 15 23 C14.57493164 22.34660645 14.14986328 21.69321289 13.71191406 21.02001953 C9.80883593 15.03152366 5.78647546 9.27101697 1.25 3.7421875 C0 2 0 2 0 0 Z " fill="#0B7319" transform="translate(608,730)"/>
<path d="M0 0 C0.33 0 0.66 0 1 0 C1.39624358 11.72587479 0.4139065 22.51957562 -2 34 C-6.80067578 26.79898634 -3.40641773 16.01155816 -2 8 C-1.34 8 -0.68 8 0 8 C0 5.36 0 2.72 0 0 Z " fill="#91C697" transform="translate(614,786)"/>
<path d="M0 0 C2.15162884 1.72358597 2.93237666 2.62837624 3.43359375 5.3828125 C3.44485026 13.28488065 2.06816618 19.39039274 -3.125 25.5 C-7.05198291 28.64158633 -10.80777603 28.1133311 -15.625 28.0625 C-16.42679687 28.05798828 -17.22859375 28.05347656 -18.0546875 28.04882812 C-20.03649006 28.03703168 -22.01825433 28.01909605 -24 28 C-24 27.67 -24 27.34 -24 27 C-22.44539063 26.90912109 -22.44539063 26.90912109 -20.859375 26.81640625 C-19.48957127 26.73196629 -18.11978025 26.64732003 -16.75 26.5625 C-16.06808594 26.52318359 -15.38617188 26.48386719 -14.68359375 26.44335938 C-11.35551959 26.23333528 -8.19744598 25.98065998 -5 25 C-4.9175 24.278125 -4.835 23.55625 -4.75 22.8125 C-4 20 -4 20 -2 17.8125 C1.376531 13.06425328 1.35465552 7.53325373 0.5625 1.875 C0.376875 1.25625 0.19125 0.6375 0 0 Z " fill="#2386A5" transform="translate(462,292)"/>
<path d="M0 0 C0.66 0.33 1.32 0.66 2 1 C1.67 1.928125 1.34 2.85625 1 3.8125 C-0.14967004 6.92029291 -0.14967004 6.92029291 0 10 C-0.8971875 10.3403125 -0.8971875 10.3403125 -1.8125 10.6875 C-5.43757268 12.86254361 -6.65446796 16.24611192 -8.375 20 C-10.16056761 23.29643252 -12.2520662 25.47487165 -15 28 C-13.63408831 24.45756548 -12.09068516 21.07372071 -10.375 17.6875 C-9.92898438 16.80449219 -9.48296875 15.92148437 -9.0234375 15.01171875 C-8.68570312 14.34785156 -8.34796875 13.68398438 -8 13 C-7.34 13 -6.68 13 -6 13 C-5.67 10.69 -5.34 8.38 -5 6 C-4.01 5.67 -3.02 5.34 -2 5 C-0.78130071 2.49552484 -0.78130071 2.49552484 0 0 Z " fill="#219340" transform="translate(432,710)"/>
<path d="M0 0 C1 2 1 2 0.75 3.9375 C0 6 0 6 -1.5 7.4375 C-3.22206222 8.94243056 -3.22206222 8.94243056 -3.4375 11.4375 C-4.16807028 14.76565349 -5.49986634 15.70257988 -8 18 C-9.53780882 19.75116973 -11.03658 21.53162976 -12.53515625 23.31640625 C-13.9594908 24.95344142 -15.4477939 26.48464152 -17 28 C-17.66 27.67 -18.32 27.34 -19 27 C-18.60208252 26.46632813 -18.20416504 25.93265625 -17.79418945 25.3828125 C-15.96379722 22.92421158 -14.13813025 20.4621387 -12.3125 18 C-11.68666016 17.16082031 -11.06082031 16.32164062 -10.41601562 15.45703125 C-6.69569363 10.43167484 -3.23809301 5.34935442 0 0 Z " fill="#0A7A20" transform="translate(497,625)"/>
<path d="M0 0 C0.33 0.66 0.66 1.32 1 2 C0.07767578 2.27263672 0.07767578 2.27263672 -0.86328125 2.55078125 C-1.67152344 2.80214844 -2.47976563 3.05351563 -3.3125 3.3125 C-4.51326172 3.67794922 -4.51326172 3.67794922 -5.73828125 4.05078125 C-8.19318598 5.08107806 -9.4363695 5.84876314 -11 8 C-12.00340815 14.07439557 -10.9245515 20.22634551 -9 26 C-7.50113129 27.83689476 -7.50113129 27.83689476 -6 29 C-6 29.66 -6 30.32 -6 31 C-5.34 31 -4.68 31 -4 31 C-4.33 32.32 -4.66 33.64 -5 35 C-5.66 35 -6.32 35 -7 35 C-7.12375 34.360625 -7.2475 33.72125 -7.375 33.0625 C-7.58125 32.381875 -7.7875 31.70125 -8 31 C-8.66 30.67 -9.32 30.34 -10 30 C-13.18051714 23.31939223 -15.43245292 14.1941638 -13 7 C-9.37257525 1.39397993 -9.37257525 1.39397993 -5.890625 0.39453125 C-3.6875 0.125 -3.6875 0.125 0 0 Z " fill="#077973" transform="translate(455,558)"/>
<path d="M0 0 C3.16119843 2.66945645 6.29505314 5.3402268 9.31640625 8.16796875 C15.70763816 14.14938121 22.40151105 19.49022011 29.42529297 24.70922852 C30.13314941 25.23830811 30.84100586 25.7673877 31.5703125 26.3125 C32.20727051 26.78300781 32.84422852 27.25351562 33.50048828 27.73828125 C35 29 35 29 36 31 C32.04956037 30.42121466 29.87297638 28.4853429 26.875 25.9375 C23.29885836 22.92576267 19.70144778 19.98090939 16 17.125 C10.26188827 12.54927103 4.86762634 7.49690122 0 2 C0 1.34 0 0.68 0 0 Z " fill="#087216" transform="translate(572,672)"/>
<path d="M0 0 C1 3 1 3 0.06640625 5.35546875 C-0.42988281 6.29003906 -0.92617188 7.22460938 -1.4375 8.1875 C-1.98792969 9.24453125 -2.53835938 10.3015625 -3.10546875 11.390625 C-3.56058838 12.25397461 -3.56058838 12.25397461 -4.02490234 13.13476562 C-5.80902945 16.54756761 -7.52607876 19.99401586 -9.25 23.4375 C-9.59087646 24.11127686 -9.93175293 24.78505371 -10.28295898 25.47924805 C-12.01975296 28.93341843 -13.63375419 32.38223685 -15 36 C-16.350668 32.98773586 -15.94908597 31.86597952 -14.75244141 28.71606445 C-14.13113786 27.42579678 -13.49665299 26.14182223 -12.8515625 24.86328125 C-12.51957855 24.18323532 -12.1875946 23.50318939 -11.84555054 22.80253601 C-10.78305212 20.63356826 -9.70406219 18.47326678 -8.625 16.3125 C-7.90520764 14.84621435 -7.18644514 13.37942268 -6.46875 11.91210938 C-1.20715157 1.20715157 -1.20715157 1.20715157 0 0 Z " fill="#0D791B" transform="translate(422,723)"/>
<path d="M0 0 C-1.91880853 1.68456437 -3.83980707 3.36641449 -5.765625 5.04296875 C-7.18228635 6.28378577 -8.58978001 7.53521375 -9.984375 8.80078125 C-10.88929688 9.61095703 -10.88929688 9.61095703 -11.8125 10.4375 C-12.35519531 10.93121094 -12.89789063 11.42492187 -13.45703125 11.93359375 C-15 13 -15 13 -18 13 C-15.20760656 6.39979732 -11.12780968 2.67235694 -4.8671875 -0.43359375 C-3 -1 -3 -1 0 0 Z " fill="#34A2C6" transform="translate(415,242)"/>
<path d="M0 0 C0.33 0 0.66 0 1 0 C1.31602565 6.53119676 1.14203104 13.09110581 -2 19 C-4.77821279 20.1849928 -6.08993841 19.98381109 -9.125 19.4375 C-12 18 -12 18 -13.375 14.875 C-13.58125 13.92625 -13.7875 12.9775 -14 12 C-12.53515625 13.26953125 -11.0703125 14.5390625 -9.60546875 15.80859375 C-7.89287029 17.20871231 -7.89287029 17.20871231 -5 18 C-2.89603589 12.06682122 -1.24028238 6.17222879 0 0 Z " fill="#A6D0A7" transform="translate(569,897)"/>
<path d="M0 0 C8.06596683 3.25532294 13.49606223 13.54689102 18.5 20.4375 C18.93328613 21.02821289 19.36657227 21.61892578 19.81298828 22.22753906 C21.84360734 25.07121962 23.51718241 27.49095074 24 31 C19.66953348 26.97885252 16.44686555 22.55843306 13.125 17.6875 C9.37931666 12.27322205 5.62247229 7.06397045 1.109375 2.25 C0 1 0 1 0 0 Z " fill="#096D16" transform="translate(555,721)"/>
<path d="M0 0 C0.99 0.33 1.98 0.66 3 1 C1.9171875 1.7425 1.9171875 1.7425 0.8125 2.5 C-2.19460429 5.17298159 -3.83800169 7.72530502 -5.7890625 11.1953125 C-7 13 -7 13 -10 15 C-11.19232613 17.05003955 -11.19232613 17.05003955 -12 19 C-12.66 19 -13.32 19 -14 19 C-13.67 17.02 -13.34 15.04 -13 13 C-12.01 12.67 -11.02 12.34 -10 12 C-10 11.34 -10 10.68 -10 10 C-9.34 10 -8.68 10 -8 10 C-7.79375 9.278125 -7.5875 8.55625 -7.375 7.8125 C-5.50508297 3.98766971 -3.49767907 2.42696099 0 0 Z " fill="#07736E" transform="translate(549,472)"/>
<path d="M0 0 C-0.90492188 0.47179687 -0.90492188 0.47179687 -1.828125 0.953125 C-8.13795834 4.10609456 -8.13795834 4.10609456 -13 9 C-13.25003964 12.54178598 -13.25003964 12.54178598 -13 16 C-13.33 16.99 -13.66 17.98 -14 19 C-14.66 19 -15.32 19 -16 19 C-16.34 9.14 -16.34 9.14 -14 5 C-5.07304884 -1.99382617 -5.07304884 -1.99382617 0 0 Z " fill="#018345" transform="translate(533,493)"/>
<path d="M0 0 C1.64453125 1.01171875 1.64453125 1.01171875 3.89453125 3.19921875 C3.89453125 4.18921875 3.89453125 5.17921875 3.89453125 6.19921875 C3.11078125 5.72484375 2.32703125 5.25046875 1.51953125 4.76171875 C-3.70120875 1.65413542 -8.0814438 1.70572518 -14.10546875 2.19921875 C-17.53873517 3.54800199 -20.04572176 5.15938742 -23.10546875 7.19921875 C-21.93180182 3.54781051 -19.71847357 1.73533451 -16.3671875 -0.03515625 C-11.20842021 -1.78147471 -5.12050967 -1.94750368 0 0 Z " fill="#329BBB" transform="translate(456.10546875,282.80078125)"/>
<path d="M0 0 C1.32 0.33 2.64 0.66 4 1 C4 1.66 4 2.32 4 3 C4.66 3 5.32 3 6 3 C5.67 3.99 5.34 4.98 5 6 C0.11682489 7.01871227 -3.61543745 7.65965743 -8.0625 5.0625 C-9.031875 4.381875 -10.00125 3.70125 -11 3 C-11 2.67 -11 2.34 -11 2 C-6.6822542 2.50797009 -2.96697886 3.19682779 1 5 C0.67 3.35 0.34 1.7 0 0 Z " fill="#8FC695" transform="translate(687,836)"/>
<path d="M0 0 C0.33 0 0.66 0 1 0 C1.33 3.96 1.66 7.92 2 12 C3.32 12.33 4.64 12.66 6 13 C7.33333333 13.33333333 8.66666667 13.66666667 10 14 C8.35 15.65 6.7 17.3 5 19 C2.525 18.01 2.525 18.01 0 17 C0 11.39 0 5.78 0 0 Z " fill="#81BC8A" transform="translate(453,898)"/>
<path d="M0 0 C0.41507812 0.3403125 0.83015625 0.680625 1.2578125 1.03125 C8.82799987 6.98604174 17.34213946 11.79965182 26 16 C21.45194365 16.17835515 18.1205746 15.99785435 14 14 C14 13.34 14 12.68 14 12 C13.43667969 11.74089844 12.87335938 11.48179687 12.29296875 11.21484375 C9.75539889 9.87040725 7.58886526 8.31210305 5.3125 6.5625 C4.52488281 5.96566406 3.73726563 5.36882812 2.92578125 4.75390625 C1 3 1 3 0 0 Z " fill="#1F90B2" transform="translate(397,388)"/>
<path d="M0 0 C2.4127702 3.83204679 2.66396543 7.97627671 3.125 12.375 C3.21136719 13.1175 3.29773438 13.86 3.38671875 14.625 C3.84823905 18.77135697 4.09286577 22.82104023 4 27 C0.58296299 20.65407413 -0.28114091 15.2113953 -0.125 8.125 C-0.11597656 7.34125 -0.10695313 6.5575 -0.09765625 5.75 C-0.07428063 3.83319945 -0.03841653 1.91655809 0 0 Z " fill="#8DC592" transform="translate(613,827)"/>
<path d="M0 0 C4.2618617 5.23046663 5.26464369 9.25158598 5 16 C1.75728494 15.4409112 0.06942576 14.5867822 -2 12 C-2 11.34 -2 10.68 -2 10 C-1.01 9.67 -0.02 9.34 1 9 C0.67 6.03 0.34 3.06 0 0 Z " fill="#0B771F" transform="translate(615,852)"/>
<path d="M0 0 C5.51757479 -0.02467609 11.03511761 -0.04284856 16.55273438 -0.05493164 C18.43066975 -0.05996763 20.3086012 -0.06679671 22.18652344 -0.07543945 C24.88217132 -0.08753713 27.57776747 -0.09323557 30.2734375 -0.09765625 C31.11619232 -0.10281754 31.95894714 -0.10797882 32.82723999 -0.11329651 C38.77225659 -0.11387171 38.77225659 -0.11387171 41 1 C41 3.31 41 5.62 41 8 C40.67 8 40.34 8 40 8 C40 6.35 40 4.7 40 3 C36.20123729 1.73374576 32.57578074 1.76701453 28.61328125 1.68359375 C27.79627243 1.66281265 26.97926361 1.64203156 26.13749695 1.62062073 C23.52924966 1.55526921 20.92090225 1.49630727 18.3125 1.4375 C16.54360946 1.39430108 14.77472903 1.35068635 13.00585938 1.30664062 C8.67067537 1.19960257 4.33539071 1.09829456 0 1 C0 0.67 0 0.34 0 0 Z " fill="#106B8C" transform="translate(534,360)"/>
<path d="M0 0 C5.32314179 0.33269636 9.29127345 3.37792594 13 7 C14 9.875 14 9.875 14 12 C10.11690718 15.64775386 7.28798182 16.58525633 2 17 C5 15 5 15 7.0625 14.1875 C9.67564428 12.58589544 10.09774983 10.85712552 11 8 C5.75249569 4.0873738 5.75249569 4.0873738 0 1 C0 0.67 0 0.34 0 0 Z " fill="#076F18" transform="translate(702,745)"/>
<path d="M0 0 C2.21641666 2.13725892 4.21237408 4.26859074 6.125 6.6875 C7.79090954 9.06757788 7.79090954 9.06757788 10 10 C10.12375 9.2575 10.2475 8.515 10.375 7.75 C10.95486701 5.19858515 11.73708739 3.2732427 13 1 C13.95465783 3.16967689 14.14401212 4.56328793 13.3984375 6.82421875 C12.64129615 8.5684743 11.82390802 10.28627131 11 12 C8.875 12 8.875 12 6 11 C2.83164129 7.69066046 0 4.68969985 0 0 Z " fill="#0A7721" transform="translate(553,903)"/>
<path d="M0 0 C1.32 0.33 2.64 0.66 4 1 C3.875 3.3125 3.875 3.3125 3 6 C-1.33445186 8.99283581 -4.81650457 9.31100973 -10 9 C-7.71747459 6.71747459 -5.40624267 5.55996245 -2.55859375 4.09765625 C-0.66956315 2.99794383 -0.66956315 2.99794383 0 0 Z " fill="#A6D1A7" transform="translate(716,754)"/>
<path d="M0 0 C0.99 0.33 1.98 0.66 3 1 C2.67 1.66 2.34 2.32 2 3 C0.66666667 3.33333333 -0.66666667 3.66666667 -2 4 C-2.763125 4.495 -3.52625 4.99 -4.3125 5.5 C-7.54384922 7.30354375 -10.34441948 7.64160975 -14 8 C-11.70930983 4.37307389 -9.9954102 2.72391514 -5.875 1.75 C-4.59625 1.5025 -3.3175 1.255 -2 1 C-1.34 0.67 -0.68 0.34 0 0 Z " fill="#20933D" transform="translate(405,696)"/>
<path d="M0 0 C2.71486934 3.97610786 2.22440753 8.13901977 2.125 12.75 C2.11597656 13.54277344 2.10695313 14.33554687 2.09765625 15.15234375 C2.07417012 17.10169281 2.03830137 19.05088575 2 21 C1.34 21.33 0.68 21.66 0 22 C-0.19590444 18.52125243 -0.38031592 15.04199096 -0.5625 11.5625 C-0.61857422 10.56927734 -0.67464844 9.57605469 -0.73242188 8.55273438 C-0.78076172 7.60849609 -0.82910156 6.66425781 -0.87890625 5.69140625 C-0.9260376 4.81685791 -0.97316895 3.94230957 -1.02172852 3.04125977 C-1 1 -1 1 0 0 Z " fill="#F15B1D" transform="translate(645,611)"/>
<path d="M0 0 C0.33 0.99 0.66 1.98 1 3 C-3.46726453 6.31442207 -7.62007164 6.66009167 -13 7 C-12.67 6.34 -12.34 5.68 -12 5 C-11.34 5 -10.68 5 -10 5 C-9.67 4.01 -9.34 3.02 -9 2 C-6.93359375 1.26953125 -6.93359375 1.26953125 -4.4375 0.8125 C-3.61121094 0.65394531 -2.78492188 0.49539063 -1.93359375 0.33203125 C-1.29550781 0.22246094 -0.65742188 0.11289062 0 0 Z " fill="#1E923C" transform="translate(430,688)"/>
<path d="M0 0 C0.66 0 1.32 0 2 0 C2.86627399 1.59766103 3.71766465 3.20339944 4.5625 4.8125 C5.27599609 6.15248047 5.27599609 6.15248047 6.00390625 7.51953125 C7 10 7 10 6 13 C3 7.25 3 7.25 3 5 C-0.0210714 7.0140476 -1.60667426 8.63279613 -3 12 C-4.21386936 8.35839192 -3.6674695 7.66834531 -2.0625 4.3125 C-1.49208984 3.10013672 -1.49208984 3.10013672 -0.91015625 1.86328125 C-0.60980469 1.24839844 -0.30945313 0.63351562 0 0 Z " fill="#097419" transform="translate(502,612)"/>
<path d="M0 0 C0.33 0 0.66 0 1 0 C1 4.95 1 9.9 1 15 C-2.3 15.33 -5.6 15.66 -9 16 C-7 14 -7 14 -3 13 C-2.01 8.71 -1.02 4.42 0 0 Z " fill="#076468" transform="translate(515,499)"/>
<path d="M0 0 C0.33 0 0.66 0 1 0 C1.33931227 2.66602496 1.67157176 5.33263014 2 8 C2.14308594 9.11568359 2.14308594 9.11568359 2.2890625 10.25390625 C2.89227676 15.20888051 3.09075591 20.00842496 3 25 C2.67 25 2.34 25 2 25 C1.67 23.02 1.34 21.04 1 19 C0.67 19 0.34 19 0 19 C-0.19600577 16.77156512 -0.38146569 14.54220107 -0.5625 12.3125 C-0.66691406 11.07113281 -0.77132812 9.82976563 -0.87890625 8.55078125 C-0.98493841 5.44164467 -0.77228525 2.99189028 0 0 Z " fill="#238738" transform="translate(537,758)"/>
<path d="M0 0 C0.33 0.66 0.66 1.32 1 2 C0.27490234 3.61645508 0.27490234 3.61645508 -0.9140625 5.51953125 C-1.34589844 6.21240234 -1.77773438 6.90527344 -2.22265625 7.61914062 C-2.68542969 8.34294922 -3.14820313 9.06675781 -3.625 9.8125 C-4.06457031 10.52470703 -4.50414062 11.23691406 -4.95703125 11.97070312 C-7.60885713 16.17396379 -10.33917 19.63652984 -14 23 C-12.27462155 18.15333389 -9.6001142 14.5061832 -6.55859375 10.40234375 C-5.09024645 8.13910167 -4.58288407 6.57898707 -4 4 C-1.9375 1.75 -1.9375 1.75 0 0 Z " fill="#066D13" transform="translate(439,759)"/>
<path d="M0 0 C0.66 0.33 1.32 0.66 2 1 C0.61220975 2.9229512 -0.78467243 4.83806385 -2.1875 6.75 C-2.57486328 7.28882813 -2.96222656 7.82765625 -3.36132812 8.3828125 C-5.90653686 11.8325169 -8.54381464 14.47078442 -12 17 C-10.70904296 11.95353157 -8.78830497 9.51111193 -5 6 C-4.443125 5.236875 -3.88625 4.47375 -3.3125 3.6875 C-2.6628125 2.8521875 -2.6628125 2.8521875 -2 2 C-1.34 2 -0.68 2 0 2 C0 1.34 0 0.68 0 0 Z " fill="#259643" transform="translate(493,637)"/>
<path d="M0 0 C0.94875 0.350625 1.8975 0.70125 2.875 1.0625 C1.125 2.625 1.125 2.625 -1.125 4.0625 C-3.375 3.75 -3.375 3.75 -5.125 3.0625 C-5.125 2.0725 -5.125 1.0825 -5.125 0.0625 C-3.125 -0.9375 -3.125 -0.9375 0 0 Z M-7.125 3.0625 C-6.465 3.3925 -5.805 3.7225 -5.125 4.0625 C-7.95930453 7.3167015 -9.81107774 8.5831753 -14.125 9.0625 C-13.125 6.0625 -13.125 6.0625 -10.1875 4.3125 C-9.176875 3.9 -8.16625 3.4875 -7.125 3.0625 Z " fill="#1B8F3A" transform="translate(366.125,706.9375)"/>
<path d="M0 0 C0.33 0.99 0.66 1.98 1 3 C0.34 3.66 -0.32 4.32 -1 5 C-1.99 5 -2.98 5 -4 5 C-4 5.66 -4 6.32 -4 7 C-5.609375 8.21875 -5.609375 8.21875 -7.75 9.5 C-8.44609375 9.9228125 -9.1421875 10.345625 -9.859375 10.78125 C-11.87563473 11.9291935 -13.91405565 12.98521626 -16 14 C-11.65208747 8.00287927 -6.05706051 4.17947783 0 0 Z " fill="#105581" transform="translate(392,215)"/>
<path d="M0 0 C3.85955925 3.74666538 7.36619254 7.68521322 10.8125 11.8125 C11.31458984 12.40998047 11.81667969 13.00746094 12.33398438 13.62304688 C13.55806732 15.08028848 14.77932962 16.53989865 16 18 C13 18 13 18 11.38671875 16.53125 C0 2.91954023 0 2.91954023 0 0 Z " fill="#0A7116" transform="translate(650,790)"/>
<path d="M0 0 C0.99 0 1.98 0 3 0 C3.26554687 0.75925781 3.53109375 1.51851563 3.8046875 2.30078125 C4.15789062 3.29464844 4.51109375 4.28851563 4.875 5.3125 C5.22304688 6.29863281 5.57109375 7.28476562 5.9296875 8.30078125 C6.95305924 11.15594377 6.95305924 11.15594377 9 14 C8.67 14.99 8.34 15.98 8 17 C3.66211636 11.60695547 1.65788103 6.69891766 0 0 Z " fill="#31A2C5" transform="translate(391,373)"/>
<path d="M0 0 C0.33 0 0.66 0 1 0 C1.04898437 0.62648438 1.09796875 1.25296875 1.1484375 1.8984375 C1.22320312 2.71570313 1.29796875 3.53296875 1.375 4.375 C1.44460938 5.18710937 1.51421875 5.99921875 1.5859375 6.8359375 C1.82892588 9.20334191 1.82892588 9.20334191 4 11 C6.06874034 11.6425235 6.06874034 11.6425235 8 12 C7.01 13.485 7.01 13.485 6 15 C3.03 14.505 3.03 14.505 0 14 C0 9.38 0 4.76 0 0 Z " fill="#1F873A" transform="translate(397,865)"/>
<path d="M0 0 C0 3.74016583 -0.9341591 4.45276193 -3.375 7.1875 C-4.00148438 7.90292969 -4.62796875 8.61835937 -5.2734375 9.35546875 C-7 11 -7 11 -9 11 C-8.3125 7.625 -8.3125 7.625 -7 4 C-4.5 2.6875 -4.5 2.6875 -2 2 C-1.34 1.34 -0.68 0.68 0 0 Z " fill="#30994B" transform="translate(412,757)"/>
<path d="M0 0 C3.47917182 2.31944788 4.29429766 4.26369964 6 8 C0.46153846 7.38461538 0.46153846 7.38461538 -1.875 5.4375 C-2.24625 4.963125 -2.6175 4.48875 -3 4 C-2.67 3.01 -2.34 2.02 -2 1 C-1.34 0.67 -0.68 0.34 0 0 Z " fill="#7AB784" transform="translate(286,714)"/>
<path d="M0 0 C0.99 0.33 1.98 0.66 3 1 C2.34 1 1.68 1 1 1 C0.67 1.99 0.34 2.98 0 4 C-1.68261221 4.95677949 -3.36856883 5.90864605 -5.078125 6.81640625 C-8.21986997 8.75126138 -10.49287154 11.30942312 -13 14 C-13.66 13.67 -14.32 13.34 -15 13 C-5.03690037 2.63837638 -5.03690037 2.63837638 0 0 Z " fill="#085070" transform="translate(353,464)"/>
<path d="M0 0 C0 4.12847617 -1.45992069 5.79147876 -4 9 C-8.87447109 12.14809591 -8.87447109 12.14809591 -12.375 11.6875 C-12.91125 11.460625 -13.4475 11.23375 -14 11 C-13.071875 10.566875 -12.14375 10.13375 -11.1875 9.6875 C-8.48254066 8.2554627 -7.0458389 7.14813084 -5 5 C-4.34 5 -3.68 5 -3 5 C-2.690625 4.360625 -2.38125 3.72125 -2.0625 3.0625 C-1 1 -1 1 0 0 Z " fill="#2183A0" transform="translate(623,387)"/>
<path d="M0 0 C0.33 0 0.66 0 1 0 C2.06059488 7.68931285 2.09928082 15.24506486 2 23 C-1.97877297 15.61085021 -0.96232814 8.05394624 0 0 Z " fill="#298D41" transform="translate(540,784)"/>
<path d="M0 0 C1.65 0 3.3 0 5 0 C5.2396943 5.63281599 4.38529821 10.54538831 3 16 C2.67 16 2.34 16 2 16 C2 11.05 2 6.1 2 1 C1.34 0.67 0.68 0.34 0 0 Z " fill="#F08E5A" transform="translate(595,646)"/>
<path d="M0 0 C0.66 0.33 1.32 0.66 2 1 C0.56974806 2.65213589 -0.86945545 4.29652589 -2.3125 5.9375 C-3.11300781 6.85402344 -3.91351563 7.77054688 -4.73828125 8.71484375 C-7 11 -7 11 -10 12 C-7.87880087 6.98625661 -4.506805 3.00453667 0 0 Z " fill="#2993B5" transform="translate(407,243)"/>
<path d="M0 0 C3.4375 0.8125 3.4375 0.8125 7 2 C7.33 2.99 7.66 3.98 8 5 C7.01 5.495 7.01 5.495 6 6 C5.34 5.67 4.68 5.34 4 5 C4 4.34 4 3.68 4 3 C1.28775382 4.61268692 -1.37352812 6.24901874 -4 8 C-2.87548273 5.0280615 -1.77706209 2.66559313 0 0 Z " fill="#128B34" transform="translate(503,621)"/>
<path d="M0 0 C0.66 0 1.32 0 2 0 C3.62109375 2.046875 3.62109375 2.046875 5.4375 4.75 C7.56217483 7.88882848 9.69853082 10.98767948 12 14 C11.67 14.66 11.34 15.32 11 16 C9.72839334 14.41728767 8.45774715 12.83380365 7.1875 11.25 C6.47980469 10.36828125 5.77210938 9.4865625 5.04296875 8.578125 C4.36878906 7.72734375 3.69460938 6.8765625 3 6 C2.41863281 5.27296875 1.83726562 4.5459375 1.23828125 3.796875 C0 2 0 2 0 0 Z " fill="#097118" transform="translate(643,802)"/>
<path d="M0 0 C0.81286668 2.33959705 1.14155721 3.58602746 0.328125 5.96484375 C-0.02765625 6.61582031 -0.3834375 7.26679687 -0.75 7.9375 C-1.12125 8.62714844 -1.4925 9.31679688 -1.875 10.02734375 C-3.2139569 12.37516749 -4.56742269 14.7078763 -6 17 C-7 14 -7 14 -5.56640625 10.64453125 C-4.90851193 9.3619696 -4.24010257 8.08475943 -3.5625 6.8125 C-3.22412109 6.15830078 -2.88574219 5.50410156 -2.53710938 4.83007812 C-1.70030902 3.21540701 -0.85130254 1.60707237 0 0 Z " fill="#229643" transform="translate(415,740)"/>
<path d="M0 0 C4.875 2.625 4.875 2.625 6 6 C3.69 6 1.38 6 -1 6 C-0.67 4.02 -0.34 2.04 0 0 Z " fill="#84BE8A" transform="translate(353,834)"/>
<path d="M0 0 C1 3 1 3 -0.36328125 5.8828125 C-1.00652344 6.95273437 -1.64976562 8.02265625 -2.3125 9.125 C-2.94800781 10.20007813 -3.58351563 11.27515625 -4.23828125 12.3828125 C-6 15 -6 15 -8 16 C-6.65678452 9.68688724 -3.75248411 5.20391664 0 0 Z " fill="#289843" transform="translate(422,741)"/>
<path d="M0 0 C0.66 0.33 1.32 0.66 2 1 C-0.63886654 5.2026393 -3.36440339 8.56638098 -7 12 C-6.67566492 6.64847115 -3.50295176 3.71719957 0 0 Z " fill="#057419" transform="translate(348,740)"/>
<path d="M0 0 C0.66 0 1.32 0 2 0 C1.39005934 3.06325753 0.42271989 5.20050634 -1.375 7.75 C-1.79523438 8.36359375 -2.21546875 8.9771875 -2.6484375 9.609375 C-3.09445312 10.06828125 -3.54046875 10.5271875 -4 11 C-4.99 11 -5.98 11 -7 11 C-7 10.34 -7 9.68 -7 9 C-6.34 9 -5.68 9 -5 9 C-4.34 7.68 -3.68 6.36 -3 5 C-2.34 5 -1.68 5 -1 5 C-0.67 3.35 -0.34 1.7 0 0 Z " fill="#057A74" transform="translate(464,547)"/>
<path d="M0 0 C6.75 0.875 6.75 0.875 9 2 C9 2.66 9 3.32 9 4 C10.32 4.33 11.64 4.66 13 5 C7.36529617 5.5497272 4.61012242 3.95047835 0 1 C0 0.67 0 0.34 0 0 Z " fill="#ABD4AD" transform="translate(676,838)"/>
<path d="M0 0 C6.14830711 1.20555041 8.35248219 2.91558124 12 8 C9.03824877 7.38722388 7.61941217 6.74627478 5 5 C5 4.34 5 3.68 5 3 C2.525 2.01 2.525 2.01 0 1 C0 0.67 0 0.34 0 0 Z " fill="#077317" transform="translate(550,654)"/>
<path d="M0 0 C0.86625 0.804375 1.7325 1.60875 2.625 2.4375 C5.62876093 4.96924136 8.03203262 5.71657376 12 6 C11.67 6.66 11.34 7.32 11 8 C5.67260293 7.73799687 5.67260293 7.73799687 3 7 C1.00607447 4.56990326 0 3.16090285 0 0 Z " fill="#B6D7B6" transform="translate(555,909)"/>
<path d="M0 0 C4 0 4 0 6.5625 2.3125 C7.366875 3.199375 8.17125 4.08625 9 5 C9.598125 5.598125 10.19625 6.19625 10.8125 6.8125 C11.204375 7.204375 11.59625 7.59625 12 8 C8.21516391 8 7.22592069 6.89417485 4.3125 4.5625 C3.50425781 3.92441406 2.69601562 3.28632812 1.86328125 2.62890625 C1.24839844 2.09136719 0.63351562 1.55382812 0 1 C0 0.67 0 0.34 0 0 Z " fill="#0B721B" transform="translate(624,786)"/>
<path d="M0 0 C0.66 0.33 1.32 0.66 2 1 C-0.19471406 5.51135667 -2.41173718 7.06273348 -7 9 C-5.76465298 5.29395893 -3.80264776 3.66251537 -1 1 C-0.67 0.67 -0.34 0.34 0 0 Z " fill="#1B933D" transform="translate(478,655)"/>
<path d="M0 0 C0.66 0 1.32 0 2 0 C2.66 1.65 3.32 3.3 4 5 C2.824375 5.2165625 2.824375 5.2165625 1.625 5.4375 C-0.96421018 5.87798925 -0.96421018 5.87798925 -3 7 C-2.25 2.25 -2.25 2.25 0 0 Z " fill="#037F29" transform="translate(503,617)"/>
<path d="M0 0 C0.99 0 1.98 0 3 0 C3 3.58912412 2.33563446 4.10857029 0 6.6875 C-0.556875 7.31011719 -1.11375 7.93273437 -1.6875 8.57421875 C-2.120625 9.04472656 -2.55375 9.51523437 -3 10 C-3 6.13304322 -1.58090029 3.4911548 0 0 Z " fill="#0A6864" transform="translate(473,536)"/>
<path d="M0 0 C-2 3 -2 3 -4.3828125 3.51171875 C-5.28773438 3.56972656 -6.19265625 3.62773438 -7.125 3.6875 C-8.03507812 3.75324219 -8.94515625 3.81898438 -9.8828125 3.88671875 C-10.93082031 3.94279297 -10.93082031 3.94279297 -12 4 C-4.76775432 -1.58925144 -4.76775432 -1.58925144 0 0 Z " fill="#2D9E4C" transform="translate(449,676)"/>
<path d="M0 0 C0.95465783 2.16967689 1.14401212 3.56328793 0.3984375 5.82421875 C-0.35870385 7.5684743 -1.17609198 9.28627131 -2 11 C-2.66 11 -3.32 11 -4 11 C-3.5247412 9.35303396 -3.04468109 7.70745272 -2.5625 6.0625 C-2.29566406 5.14597656 -2.02882813 4.22945312 -1.75390625 3.28515625 C-1 1 -1 1 0 0 Z " fill="#04721B" transform="translate(566,904)"/>
<path d="M0 0 C1.5 1.3125 1.5 1.3125 3 3 C3 3.99 3 4.98 3 6 C0.69 5.34 -1.62 4.68 -4 4 C-2.68 2.68 -1.36 1.36 0 0 Z " fill="#147D2B" transform="translate(685,835)"/>
<path d="M0 0 C0.66 0.33 1.32 0.66 2 1 C1.265611 2.32129824 0.51183106 3.63183171 -0.25 4.9375 C-0.66765625 5.66839844 -1.0853125 6.39929688 -1.515625 7.15234375 C-3.25593617 9.31857318 -4.29561004 9.63594751 -7 10 C-6.02223933 8.51990357 -5.0427506 7.04094856 -4.0625 5.5625 C-3.51722656 4.73878906 -2.97195313 3.91507813 -2.41015625 3.06640625 C-1 1 -1 1 0 0 Z " fill="#057313" transform="translate(485,643)"/>
<path d="M0 0 C0.99 0.33 1.98 0.66 3 1 C2.04737966 2.48285242 1.08771595 3.96118201 0.125 5.4375 C-0.40867187 6.26121094 -0.94234375 7.08492187 -1.4921875 7.93359375 C-3 10 -3 10 -5 11 C-3.55049545 7.2089881 -1.84827434 3.6125362 0 0 Z " fill="#0A7A52" transform="translate(467,545)"/>
<path d="M0 0 C1.18414294 3.55242882 0.69535532 4.69830562 -0.4375 8.1875 C-0.72496094 9.08855469 -1.01242187 9.98960937 -1.30859375 10.91796875 C-1.53675781 11.60503906 -1.76492188 12.29210937 -2 13 C-3.15469014 9.05842614 -2.82245557 6.03750918 -2 2 C-1.34 1.34 -0.68 0.68 0 0 Z " fill="#39A7CB" transform="translate(392,271)"/>
<path d="M0 0 C0.33 1.98 0.66 3.96 1 6 C-0.875 5.75 -0.875 5.75 -3 5 C-4.25 2.9375 -4.25 2.9375 -5 1 C-2 0 -2 0 0 0 Z " fill="#027219" transform="translate(618,861)"/>
<path d="M0 0 C0.66 0 1.32 0 2 0 C3.27400375 1.47000433 4.5435008 2.94515781 5.7578125 4.46484375 C7.07336124 6.09066342 8.48213245 7.56202021 10 9 C7 9 7 9 5.17578125 7.5390625 C4.56089844 6.90742187 3.94601562 6.27578125 3.3125 5.625 C2.68988281 4.99851562 2.06726563 4.37203125 1.42578125 3.7265625 C0 2 0 2 0 0 Z " fill="#06751A" transform="translate(656,819)"/>
<path d="M0 0 C0.66 0 1.32 0 2 0 C2.29296875 5.95703125 2.29296875 5.95703125 2 8 C1.01 8.99 0.02 9.98 -1 11 C-0.67 7.37 -0.34 3.74 0 0 Z " fill="#6CB579" transform="translate(612,794)"/>
<path d="M0 0 C0.66 0.33 1.32 0.66 2 1 C-3 7.57142857 -3 7.57142857 -8 9 C-8 8.34 -8 7.68 -8 7 C-6.25 5.2734375 -6.25 5.2734375 -4 3.375 C-3.2575 2.74335937 -2.515 2.11171875 -1.75 1.4609375 C-1.1725 0.97882812 -0.595 0.49671875 0 0 Z " fill="#067111" transform="translate(477,654)"/>
<path d="M0 0 C0.66 0.33 1.32 0.66 2 1 C0.02 3.31 -1.96 5.62 -4 8 C-4.33 7.01 -4.66 6.02 -5 5 C-3.35 3.35 -1.7 1.7 0 0 Z " fill="#00833E" transform="translate(552,474)"/>
<path d="M0 0 C0.66 0 1.32 0 2 0 C1.38722388 2.96175123 0.74627478 4.38058783 -1 7 C-1.66 6.67 -2.32 6.34 -3 6 C-1.125 1.125 -1.125 1.125 0 0 Z " fill="#359954" transform="translate(357,829)"/>
<path d="M0 0 C0.66 0 1.32 0 2 0 C0.66511872 3.59391114 -0.96022723 6.75490696 -3 10 C-3.66 9.67 -4.32 9.34 -5 9 C-3.35 6.03 -1.7 3.06 0 0 Z " fill="#047013" transform="translate(339,753)"/>
<path d="M0 0 C0.66 1.32 1.32 2.64 2 4 C0.35 5.65 -1.3 7.3 -3 9 C-3 4.72290301 -2.29379749 3.44069624 0 0 Z " fill="#13842E" transform="translate(488,638)"/>
<path d="M0 0 C1.98 1.65 3.96 3.3 6 5 C5.01 5.99 4.02 6.98 3 8 C1.58622659 5.36095629 0.62759865 2.92879371 0 0 Z " fill="#108226" transform="translate(512,628)"/>
<path d="M0 0 C-0.33 0.66 -0.66 1.32 -1 2 C-2.32488113 2.36548445 -3.66018514 2.6937566 -5 3 C-6.3479743 3.63654342 -7.68596724 4.29605388 -9 5 C-9.66 4.34 -10.32 3.68 -11 3 C-7.14243493 0.84694043 -4.44870215 -0.39253254 0 0 Z " fill="#078750" transform="translate(569,467)"/>
<path d="M0 0 C5.94 1.485 5.94 1.485 12 3 C12 3.33 12 3.66 12 4 C7.45194365 4.17835515 4.1205746 3.99785435 0 2 C0 1.34 0 0.68 0 0 Z " fill="#157FA2" transform="translate(411,400)"/>
<path d="M0 0 C2.31 0 4.62 0 7 0 C8.26026798 2.52053595 7.91874445 3.8542098 7.5625 6.625 C7.46066406 7.44226563 7.35882813 8.25953125 7.25390625 9.1015625 C7.17011719 9.72804688 7.08632813 10.35453125 7 11 C6.67 11 6.34 11 6 11 C5.67 8.03 5.34 5.06 5 2 C3.35 1.67 1.7 1.34 0 1 C0 0.67 0 0.34 0 0 Z " fill="#2E7492" transform="translate(352,367)"/>
<path d="M0 0 C1.98 0 3.96 0 6 0 C4.68 1.32 3.36 2.64 2 4 C0.68 3.34 -0.64 2.68 -2 2 C-1.34 2 -0.68 2 0 2 C0 1.34 0 0.68 0 0 Z " fill="#A7D2A8" transform="translate(456,913)"/>
<path d="M0 0 C1.89213369 2.38573379 3.02391783 4.07175348 4 7 C3.34 7.66 2.68 8.32 2 9 C0.4375 6.1875 0.4375 6.1875 -1 3 C-0.67 2.01 -0.34 1.02 0 0 Z " fill="#178332" transform="translate(550,896)"/>
<path d="M0 0 C-2.39509338 2.89932357 -4.31245243 3.50168276 -8 4 C-7 1 -7 1 -5.125 -0.25 C-3 -1 -3 -1 0 0 Z " fill="#108C34" transform="translate(360,712)"/>
<path d="M0 0 C1 2 1 2 0.75 3.9375 C-0.09806644 6.26968272 -1.1450996 7.38704313 -3 9 C-3.66 8.67 -4.32 8.34 -5 8 C-3.35 5.36 -1.7 2.72 0 0 Z " fill="#067215" transform="translate(497,625)"/>
<path d="M0 0 C0.66 0.33 1.32 0.66 2 1 C1.04882866 2.1725131 0.08882991 3.33787015 -0.875 4.5 C-1.40867187 5.1496875 -1.94234375 5.799375 -2.4921875 6.46875 C-2.98976563 6.9740625 -3.48734375 7.479375 -4 8 C-4.66 8 -5.32 8 -6 8 C-4.55746343 4.63408134 -2.66735273 2.48952921 0 0 Z " fill="#EF4008" transform="translate(496,536)"/>
</svg>
